<?xml version="1.0" standalone="no"?>
<!DOCTYPE svg PUBLIC "-//W3C//DTD SVG 20010904//EN"
 "http://www.w3.org/TR/2001/REC-SVG-20010904/DTD/svg10.dtd">
<svg version="1.0" xmlns="http://www.w3.org/2000/svg"
 width="16.000000pt" height="16.000000pt" viewBox="0 0 16.000000 16.000000"
 preserveAspectRatio="xMidYMid meet">
<metadata>
Created by potrace 1.11, written by Peter Selinger 2001-2013
</metadata>
<g transform="translate(0.000000,16.000000) scale(0.007477,-0.007477)"
fill="#000000" stroke="none">
<path d="M1180 1770 c-30 -30 -25 -64 24 -154 23 -44 58 -109 76 -144 l33 -63
-66 -67 c-36 -37 -76 -80 -89 -97 -12 -16 -28 -36 -35 -43 -8 -8 -52 -73 -100
-145 -141 -215 -242 -328 -362 -405 -151 -97 -384 -14 -476 168 -82 163 -50
349 81 469 58 54 74 61 74 36 0 -31 47 -65 87 -65 52 0 73 17 124 102 36 59
44 81 43 117 -1 53 -26 79 -134 134 -78 40 -106 39 -149 -4 -25 -24 -28 -34
-24 -71 3 -24 7 -45 9 -47 2 -2 -23 -20 -54 -40 -106 -69 -183 -174 -223 -304
-21 -71 -23 -210 -2 -281 68 -237 275 -396 513 -396 116 0 232 61 360 189 98
98 154 169 231 291 89 141 232 320 257 320 5 0 34 -46 63 -102 30 -57 67 -129
84 -160 34 -65 65 -85 108 -69 27 11 36 22 42 58 1 10 -38 96 -87 190 -49 95
-87 177 -84 182 10 15 98 31 146 27 206 -20 365 -207 354 -413 -9 -147 -101
-282 -235 -342 l-44 -20 -5 27 c-10 52 -35 74 -89 80 -50 4 -50 4 -111 -54
-128 -122 -122 -172 39 -307 28 -23 40 -27 74 -23 62 8 83 35 86 112 1 16 12
24 44 33 169 50 317 202 362 372 20 73 19 222 -1 290 -80 273 -380 448 -627
365 l-67 -23 -41 74 c-23 41 -39 77 -36 80 4 3 44 5 90 4 67 -1 88 2 105 16
30 26 35 67 11 98 l-20 25 -170 0 c-156 0 -171 -2 -189 -20z"/>
<path d="M702 1706 c-25 -13 -32 -27 -32 -62 0 -44 28 -65 91 -67 l53 -2 34
-65 c118 -224 124 -232 166 -233 30 0 62 25 69 55 4 13 -14 59 -49 127 -30 58
-54 109 -54 113 0 5 6 8 14 8 18 0 55 45 52 63 -6 36 -19 57 -39 63 -32 11
-285 11 -305 0z"/>
</g>
</svg>
