<?xml version="1.0" encoding="utf-8"?>
<!-- Generator: Adobe Illustrator 18.0.0, SVG Export Plug-In . SVG Version: 6.00 Build 0)  -->
<!DOCTYPE svg PUBLIC "-//W3C//DTD SVG 1.1//EN" "http://www.w3.org/Graphics/SVG/1.1/DTD/svg11.dtd">
<svg version="1.1" id="Layer_1" xmlns="http://www.w3.org/2000/svg" xmlns:xlink="http://www.w3.org/1999/xlink" x="0px" y="0px"
	 viewBox="0 0 32.2 32.2" enable-background="new 0 0 32.2 32.2" xml:space="preserve">
<g>
	<g>
		<path fill="#FFFFFF" d="M16.1,32.2C7.2,32.2,0,25,0,16.1C0,7.2,7.2,0,16.1,0s16.1,7.2,16.1,16.1C32.2,25,25,32.2,16.1,32.2z
			 M16.1,0.6c-8.6,0-15.5,7-15.5,15.5s7,15.5,15.5,15.5c8.6,0,15.5-7,15.5-15.5S24.7,0.6,16.1,0.6z"/>
	</g>
	<g>
		<g>
			<path fill="#FFFFFF" d="M9.9,13.4c-0.1-0.4,0-1.1,0-1.2c0-0.3,0,0,0-0.3c0-0.5-0.1-1,0.1-1.5c0.3-0.6,0.8-0.5,1.4-0.5
				c0.2,0,0.4-0.1,0.7,0c0.1,0,0.1,1.2,0.1,1.2c0.6-0.7,1.9-1.9,2.5-2.5c0.5-0.5,1.1-0.4,1.7-0.4c0.2,0,0.4,0.1,0.5,0.3
				c0,0,0,0,0.1,0c0.3,0,0.7,0.6,0.9,0.8c0.3,0.3,0.7,0.7,1,1c0.7,0.7,1.3,1.3,2,2c0.4,0.4,0.9,0.9,1.3,1.3c0.5,0.5,0.5,0.5,1,1
				c0.3,0.3,0.7,0.7,1.1,1c0.2,0.2,0.4,0.5,0.6,0.7c0.2,0.2,0.3,0.4,0.3,0.7c0,0.6-1,0.9-1.5,0.8c-0.1,0-1-0.3-1-0.3
				c0,0.1,0,0.2,0,0.2c0,1,0,2.1,0,3.1c0,1.2,0.1,2.5-0.8,3.4c-0.7,0.8-2.1,0.5-3,0.5c-2.2,0-4.5,0-6.7,0c-0.4,0-0.9,0.1-1.3-0.2
				c-0.4-0.2-0.7-0.5-0.9-0.8c-0.5-0.8-0.4-1.8-0.4-2.7c0-1.1,0-2.2,0-3.3c0-0.1,0-0.2,0-0.3c0,0.2-0.8,0.4-0.9,0.4
				c-0.3,0.1-0.7,0.1-1.1,0c-0.2-0.1-0.3-0.2-0.4-0.3c-0.1-0.2-0.1-0.4,0-0.6c0.2-0.8,0.8-1.2,1.3-1.8L9.9,13.4z M11.1,22.9
				C11.1,22.9,11.1,22.9,11.1,22.9c0.3,0.2,0.6,0.2,0.8,0.2c1.3,0,2.7,0,4,0c0-0.9,0-1.7,0-2.6c0-0.4,0-0.7,0.2-1.1
				c0.2-0.4,0.7-0.7,1.2-0.8s1,0,1.5,0c0.4,0.2,0.7,0.4,1,0.7c0.1,1.2,0.2,2.4,0.1,3.7c0.3,0.2,0.8,0.1,1-0.2
				c0.2-0.3,0.3-0.7,0.2-1.1c0-0.6,0-1.2,0-1.8c0-1,0-2.1,0-3.1c0-0.6-0.2-1.1-0.6-1.6c-0.5-0.5-1-1-1.5-1.5
				c-0.6-0.6-1.1-1.1-1.7-1.7c-0.4-0.4-0.8-0.8-1.4-0.7c-0.4,0-0.8,0.4-1.1,0.7c-1.2,1.1-2.3,2.3-3.5,3.4c-0.4,0.4-0.4,0.7-0.4,1.3
				c0,0.6,0,1.2,0,1.8c0,1.2,0.1,2.4,0,3.6C10.9,22.3,10.9,22.7,11.1,22.9z"/>
		</g>
	</g>
</g>
</svg>
