<?xml version="1.0" encoding="utf-8"?>
<!-- Generator: Adobe Illustrator 18.0.0, SVG Export Plug-In . SVG Version: 6.00 Build 0)  -->
<!DOCTYPE svg PUBLIC "-//W3C//DTD SVG 1.1//EN" "http://www.w3.org/Graphics/SVG/1.1/DTD/svg11.dtd">
<svg version="1.1" id="Layer_1" xmlns="http://www.w3.org/2000/svg" xmlns:xlink="http://www.w3.org/1999/xlink" x="0px" y="0px"
	 viewBox="0 0 32.2 32.2" enable-background="new 0 0 32.2 32.2" xml:space="preserve">
<g>
	<g>
		<path fill="#FFFFFF" d="M16.1,32.2C7.2,32.2,0,25,0,16.1C0,7.2,7.2,0,16.1,0s16.1,7.2,16.1,16.1C32.2,25,24.9,32.2,16.1,32.2z
			 M16.1,0.6c-8.6,0-15.5,7-15.5,15.5s7,15.5,15.5,15.5s15.5-7,15.5-15.5S24.6,0.6,16.1,0.6z"/>
	</g>
	<g>
		<g>
			<path fill="#FFFFFF" d="M18.1,13.1c-0.1,0.3-0.1,0.5-0.2,0.8c-0.2,1.1-0.5,2.1-0.7,3.2c-0.2,1.1-0.5,2.3-0.7,3.4
				c-0.2,0.9-0.4,1.7-0.5,2.6c0,0.1,0,0.3-0.1,0.4c0,0.3,0.2,0.5,0.5,0.5c0.3,0,0.6,0,0.8-0.1c0.2-0.1,0.3-0.1,0.5-0.2
				c0,0.1,0,0.2-0.1,0.3c-0.1,0.6-0.2,1.1-0.3,1.6c0,0,0,0.1-0.1,0.1c-0.5,0.3-1.1,0.5-1.8,0.6c-0.4,0.1-0.8,0.1-1.2,0
				c-0.5-0.1-1-0.2-1.4-0.5c-0.3-0.3-0.5-0.7-0.6-1.1c-0.1-0.5-0.1-0.9,0-1.4c0.2-1,0.4-2,0.6-2.9c0.2-1,0.4-2,0.6-3
				c0.1-0.6,0.3-1.2,0.4-1.8c0,0,0,0,0,0c-0.6,0-1.2,0-1.7,0c0-0.1,0-0.2,0.1-0.3c0.2-0.7,0.3-1.5,0.5-2.2c0-0.1,0-0.1,0.1-0.1
				C14.6,13.1,16.3,13.1,18.1,13.1C18.1,13.1,18.1,13.1,18.1,13.1z"/>
		</g>
		<g>
			<path fill="#FFFFFF" d="M14.9,10c0-0.6,0.2-1.1,0.6-1.5C15.9,8,16.4,7.7,17,7.6c0.6-0.1,1.1,0,1.5,0.4c0.3,0.3,0.5,0.6,0.5,1
				c0.1,0.7-0.2,1.3-0.7,1.7c-0.4,0.4-0.9,0.7-1.4,0.8c-0.5,0.1-1,0-1.4-0.3c-0.3-0.2-0.5-0.6-0.6-1C14.9,10.1,14.9,10,14.9,10z"/>
		</g>
	</g>
</g>
</svg>
