<?xml version="1.0" encoding="utf-8"?>
<!-- Generator: Adobe Illustrator 18.0.0, SVG Export Plug-In . SVG Version: 6.00 Build 0)  -->
<!DOCTYPE svg PUBLIC "-//W3C//DTD SVG 1.1//EN" "http://www.w3.org/Graphics/SVG/1.1/DTD/svg11.dtd">
<svg version="1.1" id="Layer_1" xmlns="http://www.w3.org/2000/svg" xmlns:xlink="http://www.w3.org/1999/xlink" x="0px" y="0px"
	 viewBox="0 217.6 960 124.8" enable-background="new 0 217.6 960 124.8" xml:space="preserve">
<polygon fill="none" points="960,334.9 960,217.6 0,217.6 0,334.9 22.6,338.7 52.7,329.7 87.8,339.3 140.3,333.5 189.5,341 
	257.7,337.1 315,341 352.3,337.1 439.9,342.4 509.1,337.1 551.8,342.4 643.5,334.7 703.8,340.4 747.6,334.9 802.1,339.8 
	835.7,336.4 883.1,339.8 912.3,334.9 938,341 "/>
<g>
	<g>
		<g>
			<defs>
				<rect id="SVGID_1_" y="217.6" width="960" height="124.7"/>
			</defs>
			<clipPath id="SVGID_2_">
				<use xlink:href="#SVGID_1_"  overflow="visible"/>
			</clipPath>
			<g opacity="0.95" clip-path="url(#SVGID_2_)">
				<path fill="#E3F4DC" stroke="#E3F4DC" stroke-width="1.51" d="M732.8,173.5l50.7,0.6l121-7.2L732.8,173.5z"/>
				<path fill="#7092A5" stroke="#7092A5" stroke-width="1.51" d="M509.1,628.7l336-21.1L640,617.1L509.1,628.7z"/>
				<path fill="#7E99AE" stroke="#7E99AE" stroke-width="1.51" d="M509.1,628.7l466.1-25.4l-130.1,4.3L509.1,628.7z"/>
				<path fill="#BEE5D5" stroke="#BEE5D5" stroke-width="1.51" d="M394.2,176.1l76.7,2.9l261.9-5.5L394.2,176.1z"/>
				<path fill="#B8E3D7" stroke="#B8E3D7" stroke-width="1.51" d="M343.9,173.8l50.3,2.3l338.6-2.6L343.9,173.8z"/>
				<path fill="#D2EED2" stroke="#D2EED2" stroke-width="1.51" d="M343.9,173.8l388.9-0.3l171.7-6.6L343.9,173.8z"/>
				<path fill="#2773AA" stroke="#2773AA" stroke-width="1.51" d="M198.2,613.4l176.5,9l-94.1-11.3L198.2,613.4z"/>
				<path fill="#2D76AB" stroke="#2D76AB" stroke-width="1.51" d="M77.7,613.6l431.4,15l-134.4-6.4L77.7,613.6z"/>
				<path fill="#1C69A5" stroke="#1C69A5" stroke-width="1.51" d="M77.7,613.6l297,8.7l-176.5-9L77.7,613.6z"/>
				<path fill="#1060A1" stroke="#1060A1" stroke-width="1.51" d="M77.7,613.6l120.5-0.3l-70.2-6.1L77.7,613.6z"/>
				<path fill="#1565A3" stroke="#1565A3" stroke-width="1.51" d="M4.4,512.8l20.4,71l23-45.1L4.4,512.8z"/>
				<path fill="#869EB8" stroke="#869EB8" stroke-width="1.51" d="M4.4,238.8l43.4-6.6l0.4-42.7L4.4,238.8z"/>
				<path fill="#B0DBDC" stroke="#B0DBDC" stroke-width="1.51" d="M1.3,172.9l342.5,0.9l560.7-6.9L1.3,172.9z"/>
				<path fill="#99BAD1" stroke="#99BAD1" stroke-width="1.51" d="M1.3,172.9l222.9,6.1l119.7-5.2L1.3,172.9z"/>
				<path fill="#90A7C5" stroke="#90A7C5" stroke-width="1.51" d="M1.3,172.9l46.8,16.5l111.9-2.6L1.3,172.9z"/>
				<path fill="#94B1CD" stroke="#94B1CD" stroke-width="1.51" d="M1.3,172.9L160,186.8l64.2-7.8L1.3,172.9z"/>
				<path fill="#899DB9" stroke="#899DB9" stroke-width="1.51" d="M1.3,172.9l3,65.9l43.8-49.4L1.3,172.9z"/>
				<path fill="#1965A2" stroke="#1965A2" stroke-width="1.51" d="M-8.6,612.2l517.7,16.5L77.7,613.6L-8.6,612.2z"/>
				<path fill="#0C5A9D" stroke="#0C5A9D" stroke-width="1.51" d="M-8.6,612.2l33.4-28.3l-20.4-71L-8.6,612.2z"/>
				<path fill="#7B98AC" stroke="#7B98AC" stroke-width="1.51" d="M-10.4,252.9l34.3,69.6l30.4-49.7L-10.4,252.9z"/>
				<path fill="#8398B2" stroke="#8398B2" stroke-width="1.51" d="M-10.4,252.9l14.8-14.1l-3-65.9L-10.4,252.9z"/>
				<path fill="#7291A4" stroke="#7291A4" stroke-width="1.51" d="M-13,354.9l36.9-32.3L-10.4,253L-13,354.9z"/>
				<path fill="#4486AF" stroke="#4486AF" stroke-width="1.51" d="M-15.1,381.7L22.6,453l48.1-17L-15.1,381.7z"/>
				<path fill="#4C8DB0" stroke="#4C8DB0" stroke-width="1.51" d="M-15.1,381.7L70.8,436l16-29.5L-15.1,381.7z"/>
				<path fill="#5F8EA6" stroke="#5F8EA6" stroke-width="1.51" d="M-15.1,381.7l86.7-28.6l-84.6,1.7L-15.1,381.7z"/>
				<path fill="#5991AD" stroke="#5991AD" stroke-width="1.51" d="M-15.1,381.7l101.9,24.9l-15.2-53.4L-15.1,381.7z"/>
				<path fill="#327CAE" stroke="#327CAE" stroke-width="1.51" d="M-15.1,381.7L4.4,512.8L17,477.6L-15.1,381.7z"/>
				<path fill="#3E80AD" stroke="#3E80AD" stroke-width="1.51" d="M-15.1,381.7L17,477.6l5.6-24.5L-15.1,381.7z"/>
				<path fill="#236CA5" stroke="#236CA5" stroke-width="1.51" d="M-15.1,381.7l6.5,230.5l13-99.4L-15.1,381.7z"/>
				<path fill="#6B8DA0" stroke="#6B8DA0" stroke-width="1.51" d="M-15.1,381.7l2.2-26.9l2.6-102L-15.1,381.7z"/>
				<path fill="#6892A6" stroke="#6892A6" stroke-width="1.51" d="M-13,354.9l84.6-1.7l-47.7-30.6L-13,354.9z"/>
				<path fill="#8099AF" stroke="#8099AF" stroke-width="1.51" d="M-10.4,252.9l64.6,19.9l-49.8-34L-10.4,252.9z"/>
				<path fill="#0A5396" stroke="#0A5396" stroke-width="1.51" d="M-8.6,612.2l86.3,1.4l-52.9-29.7L-8.6,612.2z"/>
				<path fill="#2977AE" stroke="#2977AE" stroke-width="1.51" d="M4.4,512.8l78.5-32.9L17,477.6L4.4,512.8z"/>
				<path fill="#829DB3" stroke="#829DB3" stroke-width="1.51" d="M4.4,238.8l49.9,34.1l-6.5-40.7L4.4,238.8z"/>
				<path fill="#769AAD" stroke="#769AAD" stroke-width="1.51" d="M23.9,322.5l43.8-1.4l-13.5-48.3L23.9,322.5z"/>
				<path fill="#2172AC" stroke="#2172AC" stroke-width="1.51" d="M4.4,512.8l43.4,26l35.1-58.9L4.4,512.8z"/>
				<path fill="#0F64A6" stroke="#0F64A6" stroke-width="1.51" d="M24.8,583.9L94.2,568l-46.4-29.2L24.8,583.9z"/>
				<path fill="#6E98AA" stroke="#6E98AA" stroke-width="1.51" d="M23.9,322.5l47.7,30.6L67.7,321L23.9,322.5z"/>
				<path fill="#307EB2" stroke="#307EB2" stroke-width="1.51" d="M17,477.6l65.9,2.3L22.6,453L17,477.6z"/>
				<path fill="#3485B8" stroke="#3485B8" stroke-width="1.51" d="M22.6,453.1L82.9,480l-12.1-43.9L22.6,453.1z"/>
				<path fill="#095DA0" stroke="#095DA0" stroke-width="1.51" d="M24.8,583.9l52.9,29.7L94.2,568L24.8,583.9z"/>
				<path fill="#7BA4B7" stroke="#7BA4B7" stroke-width="1.51" d="M67.7,321.1l59-16.8l-7.4-25.7L67.7,321.1z"/>
				<path fill="#7CA1B4" stroke="#7CA1B4" stroke-width="1.51" d="M54.2,272.8L67.6,321l51.7-42.4L54.2,272.8z"/>
				<path fill="#8EADC8" stroke="#8EADC8" stroke-width="1.51" d="M48.2,189.4l100.6,45.9l11.2-48.5L48.2,189.4z"/>
				<path fill="#83A3B8" stroke="#83A3B8" stroke-width="1.51" d="M47.7,232.1l6.5,40.7l65,5.8L47.7,232.1z"/>
				<path fill="#87A9BF" stroke="#87A9BF" stroke-width="1.51" d="M47.7,232.1l71.6,46.5l29.5-43.3L47.7,232.1z"/>
				<path fill="#8AA6C1" stroke="#8AA6C1" stroke-width="1.51" d="M47.7,232.1l101,3.2L48.2,189.4L47.7,232.1z"/>
				<path fill="#1E78B3" stroke="#1E78B3" stroke-width="1.51" d="M47.7,538.8l99.7-9.8l-64.6-49.1L47.7,538.8z"/>
				<path fill="#1570B0" stroke="#1570B0" stroke-width="1.51" d="M47.7,538.8L94.1,568l53.3-39L47.7,538.8z"/>
				<path fill="#599EBA" stroke="#599EBA" stroke-width="1.51" d="M86.8,406.6l60.7,5.2l11.3-69.3L86.8,406.6z"/>
				<path fill="#0960A4" stroke="#0960A4" stroke-width="1.51" d="M77.7,613.6l50.3-6.4l-33.8-39.3L77.7,613.6z"/>
				<path fill="#629DB5" stroke="#629DB5" stroke-width="1.51" d="M71.6,353.1l15.2,53.5l72-64.1L71.6,353.1z"/>
				<path fill="#71A3B3" stroke="#71A3B3" stroke-width="1.51" d="M71.6,353.1l87.2-10.7l-32.1-38.1L71.6,353.1z"/>
				<path fill="#338ABE" stroke="#338ABE" stroke-width="1.51" d="M70.7,436l12.1,43.9l53.8-12.1L70.7,436z"/>
				<path fill="#729FB1" stroke="#729FB1" stroke-width="1.51" d="M67.7,321.1l3.9,32.1l55.1-48.8L67.7,321.1z"/>
				<path fill="#4592BC" stroke="#4592BC" stroke-width="1.51" d="M70.7,436l79.8,4l-63.7-33.4L70.7,436z"/>
				<path fill="#3B90C0" stroke="#3B90C0" stroke-width="1.51" d="M70.7,436l65.9,31.8l13.9-27.7L70.7,436z"/>
				<path fill="#4A97BD" stroke="#4A97BD" stroke-width="1.51" d="M86.8,406.6l63.7,33.5l-3-28.3L86.8,406.6z"/>
				<path fill="#2A84BB" stroke="#2A84BB" stroke-width="1.51" d="M82.9,479.9l64.6,49.1l-10.8-61.2L82.9,479.9z"/>
				<path fill="#C8EAD0" stroke="#C8EAD0" stroke-width="1.51" d="M470.9,179l119.2,9l142.7-14.4L470.9,179z"/>
				<path fill="#0D67AA" stroke="#0D67AA" stroke-width="1.51" d="M94.1,568l33.8,39.3l18.6-29.2L94.1,568z"/>
				<path fill="#64A5B9" stroke="#64A5B9" stroke-width="1.51" d="M147.5,411.8l37.7-57.2l-26.4-12.1L147.5,411.8z"/>
				<path fill="#1570B1" stroke="#1570B1" stroke-width="1.51" d="M94.1,568l52.5,10.1l0.9-49.1L94.1,568z"/>
				<path fill="#5CA4BD" stroke="#5CA4BD" stroke-width="1.51" d="M147.5,411.8l48.1-17.9l-10.4-39.3L147.5,411.8z"/>
				<path fill="#2885BB" stroke="#2885BB" stroke-width="1.51" d="M136.6,467.8l10.8,61.2l42.1-8.7L136.6,467.8z"/>
				<path fill="#78AAB8" stroke="#78AAB8" stroke-width="1.51" d="M126.7,304.3l32.1,38.1l28.2-29.7L126.7,304.3z"/>
				<path fill="#88B0C1" stroke="#88B0C1" stroke-width="1.51" d="M119.3,278.6l76.3-22l-46.8-21.4L119.3,278.6z"/>
				<path fill="#7EAABA" stroke="#7EAABA" stroke-width="1.51" d="M119.3,278.6l7.4,25.7l60.3,8.4L119.3,278.6z"/>
				<path fill="#84B0BE" stroke="#84B0BE" stroke-width="1.51" d="M119.3,278.6l67.6,34.1l8.7-56L119.3,278.6z"/>
				<path fill="#1A75B3" stroke="#1A75B3" stroke-width="1.51" d="M146.6,578.1l53.3-8.4L147.4,529L146.6,578.1z"/>
				<path fill="#318EC0" stroke="#318EC0" stroke-width="1.51" d="M136.6,467.8l52.9,52.6l27.8-47.1L136.6,467.8z"/>
				<path fill="#1467A7" stroke="#1467A7" stroke-width="1.51" d="M128,607.3l70.2,6.1l-51.6-35.2L128,607.3z"/>
				<path fill="#91B5CA" stroke="#91B5CA" stroke-width="1.51" d="M148.8,235.3l62.4-17L160,186.8L148.8,235.3z"/>
				<path fill="#3D95C2" stroke="#3D95C2" stroke-width="1.51" d="M136.6,467.8l42.5-27.4l-28.6-0.3L136.6,467.8z"/>
				<path fill="#3996C4" stroke="#3996C4" stroke-width="1.51" d="M136.6,467.8l80.7,5.5l-38.2-32.9L136.6,467.8z"/>
				<path fill="#479AC1" stroke="#479AC1" stroke-width="1.51" d="M147.5,411.8l3,28.3l28.6,0.3L147.5,411.8z"/>
				<path fill="#217DB6" stroke="#217DB6" stroke-width="1.51" d="M147.5,529l52.5,40.7l-10.4-49.4L147.5,529z"/>
				<path fill="#176EAD" stroke="#176EAD" stroke-width="1.51" d="M146.6,578.1l51.6,35.2l1.7-43.6L146.6,578.1z"/>
				<path fill="#4F9FC0" stroke="#4F9FC0" stroke-width="1.51" d="M147.5,411.8l31.7,28.6l16.5-46.5L147.5,411.8z"/>
				<path fill="#8EB5C6" stroke="#8EB5C6" stroke-width="1.51" d="M148.8,235.3l46.8,21.4l15.6-38.4L148.8,235.3z"/>
				<path fill="#96BACF" stroke="#96BACF" stroke-width="1.51" d="M160,186.8l51.2,31.5l13-39.3L160,186.8z"/>
				<path fill="#73ABB7" stroke="#73ABB7" stroke-width="1.51" d="M158.7,342.4l26.4,12.1l1.7-41.9L158.7,342.4z"/>
				<path fill="#2582BA" stroke="#2582BA" stroke-width="1.51" d="M189.5,520.4l10.4,49.4l60.3-38.1L189.5,520.4z"/>
				<path fill="#88B7C2" stroke="#88B7C2" stroke-width="1.51" d="M186.9,312.7l81.1-44.5l-72.4-11.6L186.9,312.7z"/>
				<path fill="#74AFB9" stroke="#74AFB9" stroke-width="1.51" d="M185.2,354.6l61.1-7.2l-59.4-34.7L185.2,354.6z"/>
				<path fill="#69ACBC" stroke="#69ACBC" stroke-width="1.51" d="M185.2,354.6l10.4,39.3l50.7-46.5L185.2,354.6z"/>
				<path fill="#4CA3C4" stroke="#4CA3C4" stroke-width="1.51" d="M179.1,440.4l103.2,8.1l-86.7-54.6L179.1,440.4z"/>
				<path fill="#3F9FC8" stroke="#3F9FC8" stroke-width="1.51" d="M179.1,440.4l38.2,32.9l65-24.8L179.1,440.4z"/>
				<path fill="#57ACC4" stroke="#57ACC4" stroke-width="1.51" d="M195.6,393.9l86.7,54.6l4.8-61.2L195.6,393.9z"/>
				<path fill="#2D8DBE" stroke="#2D8DBE" stroke-width="1.51" d="M189.5,520.4l70.7,11.3l-42.9-58.3L189.5,520.4z"/>
				<path fill="#84BAC0" stroke="#84BAC0" stroke-width="1.51" d="M186.9,312.7l95.4,5.5l-14.3-50L186.9,312.7z"/>
				<path fill="#7BB6BC" stroke="#7BB6BC" stroke-width="1.51" d="M186.9,312.7l59.4,34.7l36-29.2L186.9,312.7z"/>
				<path fill="#1D71AC" stroke="#1D71AC" stroke-width="1.51" d="M198.2,613.4l82.4-2.3l-80.7-41.3L198.2,613.4z"/>
				<path fill="#9FC9D7" stroke="#9FC9D7" stroke-width="1.51" d="M224.2,179l57.7,13l62-18.2L224.2,179z"/>
				<path fill="#237BB4" stroke="#237BB4" stroke-width="1.51" d="M199.9,569.7l80.7,41.3l5.6-42.2L199.9,569.7z"/>
				<path fill="#90BCC9" stroke="#90BCC9" stroke-width="1.51" d="M195.6,256.7l78.9-21.7l-63.3-16.7L195.6,256.7z"/>
				<path fill="#8FBEC8" stroke="#8FBEC8" stroke-width="1.51" d="M195.6,256.7l72.4,11.5l6.5-33.2L195.6,256.7z"/>
				<path fill="#66B0C0" stroke="#66B0C0" stroke-width="1.51" d="M195.6,393.9l91.5-6.6l-40.8-39.9L195.6,393.9z"/>
				<path fill="#3696C4" stroke="#3696C4" stroke-width="1.51" d="M217.3,473.3l42.9,58.3l17.8-57.5L217.3,473.3z"/>
				<path fill="#2682B9" stroke="#2682B9" stroke-width="1.51" d="M199.9,569.7l86.3-0.9l-26-37.3L199.9,569.7z"/>
				<path fill="#3FA0C9" stroke="#3FA0C9" stroke-width="1.51" d="M217.3,473.3l60.7,0.9l4.3-25.7L217.3,473.3z"/>
				<path fill="#98C0D2" stroke="#98C0D2" stroke-width="1.51" d="M211.2,218.3l70.7-26.3l-57.7-13L211.2,218.3z"/>
				<path fill="#96C2D0" stroke="#96C2D0" stroke-width="1.51" d="M211.2,218.3l63.3,16.8l7.4-43L211.2,218.3z"/>
				<path fill="#2D79AE" stroke="#2D79AE" stroke-width="1.51" d="M280.6,611l94.1,11.3l-62.4-16.5L280.6,611z"/>
				<path fill="#3899C5" stroke="#3899C5" stroke-width="1.51" d="M260.2,531.6l62.4-34.9L278,474.1L260.2,531.6z"/>
				<path fill="#7ABABE" stroke="#7ABABE" stroke-width="1.51" d="M246.3,347.4l60.7,3.8l-24.7-32.9L246.3,347.4z"/>
				<path fill="#70B7C1" stroke="#70B7C1" stroke-width="1.51" d="M246.3,347.4l40.8,39.9l19.9-36.1L246.3,347.4z"/>
				<path fill="#56B0CA" stroke="#56B0CA" stroke-width="1.51" d="M282.3,448.4l52-9L287,387.1L282.3,448.4z"/>
				<path fill="#297BB2" stroke="#297BB2" stroke-width="1.51" d="M280.6,611l31.7-5.2l-26-37L280.6,611z"/>
				<path fill="#99C8D2" stroke="#99C8D2" stroke-width="1.51" d="M274.5,235l47.3-11l-39.9-32.1L274.5,235z"/>
				<path fill="#8AC2C5" stroke="#8AC2C5" stroke-width="1.51" d="M268,268.2l14.3,50l62-14.2L268,268.2z"/>
				<path fill="#308CBF" stroke="#308CBF" stroke-width="1.51" d="M260.2,531.6l26,37.3l58.5-34.7L260.2,531.6z"/>
				<path fill="#3696C4" stroke="#3696C4" stroke-width="1.51" d="M260.2,531.6l84.6,2.6l-22.1-37.5L260.2,531.6z"/>
				<path fill="#60B7C9" stroke="#60B7C9" stroke-width="1.51" d="M287.1,387.2l47.3,52.3l-6.1-54.9L287.1,387.2z"/>
				<path fill="#93C7CA" stroke="#93C7CA" stroke-width="1.51" d="M268,268.2l76.3,35.8l-4.8-52.6L268,268.2z"/>
				<path fill="#94C6CC" stroke="#94C6CC" stroke-width="1.51" d="M268,268.2l71.5-16.8l-65-16.5L268,268.2z"/>
				<path fill="#D1EDD1" stroke="#D1EDD1" stroke-width="1.51" d="M590.2,187.9l74.6-2.3l68.1-12.1L590.2,187.9z"/>
				<path fill="#98C9D0" stroke="#98C9D0" stroke-width="1.51" d="M274.5,235l65,16.5L321.8,224L274.5,235z"/>
				<path fill="#7A98AC" stroke="#7A98AC" stroke-width="1.51" d="M640,617.1l205.1-9.5l-127-0.9L640,617.1z"/>
				<path fill="#6DBAC4" stroke="#6DBAC4" stroke-width="1.51" d="M287.1,387.2l41.2-2.6L307,351.1L287.1,387.2z"/>
				<path fill="#338EC0" stroke="#338EC0" stroke-width="1.51" d="M286.2,568.9l65.9-5.2l-7.4-29.5L286.2,568.9z"/>
				<path fill="#47A9CD" stroke="#47A9CD" stroke-width="1.51" d="M278,474.1l56.4-34.7l-52,9L278,474.1z"/>
				<path fill="#44A6CD" stroke="#44A6CD" stroke-width="1.51" d="M278,474.1l44.7,22.5l11.7-57.2L278,474.1z"/>
				<path fill="#82C1C2" stroke="#82C1C2" stroke-width="1.51" d="M282.3,318.2l24.7,32.9l37.3-47.1L282.3,318.2z"/>
				<path fill="#9FCDD7" stroke="#9FCDD7" stroke-width="1.51" d="M281.9,192l39.9,32.1l22.1-50.3L281.9,192z"/>
				<path fill="#2E84BA" stroke="#2E84BA" stroke-width="1.51" d="M286.2,568.9l26,37l39.9-42.2L286.2,568.9z"/>
				<path fill="#60BACC" stroke="#60BACC" stroke-width="1.51" d="M328.3,384.6l6.1,54.9l42.1-30.9L328.3,384.6z"/>
				<path fill="#4CB0D1" stroke="#4CB0D1" stroke-width="1.51" d="M322.6,496.7l58.5-58.1l-46.8,0.9L322.6,496.7z"/>
				<path fill="#A1D1D8" stroke="#A1D1D8" stroke-width="1.51" d="M321.8,224l55.5-1.2l-33.4-49.1L321.8,224z"/>
				<path fill="#87C7C5" stroke="#87C7C5" stroke-width="1.51" d="M307,351.1l82.8-42.2l-45.5-4.9L307,351.1z"/>
				<path fill="#81C7C5" stroke="#81C7C5" stroke-width="1.51" d="M307,351.1l96.7,18.5l-13.9-60.7L307,351.1z"/>
				<path fill="#74C1C7" stroke="#74C1C7" stroke-width="1.51" d="M307,351.1l21.2,33.5l75.4-15L307,351.1z"/>
				<path fill="#4BADCF" stroke="#4BADCF" stroke-width="1.51" d="M322.6,496.7l89.8-2.3l-31.2-55.8L322.6,496.7z"/>
				<path fill="#3182B6" stroke="#3182B6" stroke-width="1.51" d="M312.2,605.8l62.4,16.5l-22.5-58.6L312.2,605.8z"/>
				<path fill="#97CFCE" stroke="#97CFCE" stroke-width="1.51" d="M339.6,251.5l4.8,52.6l64.6-41L339.6,251.5z"/>
				<path fill="#40A1CA" stroke="#40A1CA" stroke-width="1.51" d="M322.6,496.7l22.1,37.5l67.6-39.9L322.6,496.7z"/>
				<path fill="#9CCFD3" stroke="#9CCFD3" stroke-width="1.51" d="M321.8,224l17.8,27.4l37.7-28.6L321.8,224z"/>
				<path fill="#388ABC" stroke="#388ABC" stroke-width="1.51" d="M352.1,563.7l22.5,58.6l27.8-52.6L352.1,563.7z"/>
				<path fill="#A6D6DC" stroke="#A6D6DC" stroke-width="1.51" d="M343.9,173.8l33.4,49.1l16.9-46.8L343.9,173.8z"/>
				<path fill="#5BB8D0" stroke="#5BB8D0" stroke-width="1.51" d="M334.4,439.5l46.8-0.9l-4.8-30L334.4,439.5z"/>
				<path fill="#6DC1CA" stroke="#6DC1CA" stroke-width="1.51" d="M328.3,384.6l48.1,24l27.3-39L328.3,384.6z"/>
				<path fill="#429FC7" stroke="#429FC7" stroke-width="1.51" d="M344.8,534.2l47.3,6.9l20.4-46.8L344.8,534.2z"/>
				<path fill="#94CFCA" stroke="#94CFCA" stroke-width="1.51" d="M344.3,304l45.5,4.9l19.1-45.9L344.3,304z"/>
				<path fill="#4684AB" stroke="#4684AB" stroke-width="1.51" d="M374.7,622.3l134.4,6.4l-64.6-20.5L374.7,622.3z"/>
				<path fill="#3A95C4" stroke="#3A95C4" stroke-width="1.51" d="M344.8,534.2l7.4,29.5l39.9-22.5L344.8,534.2z"/>
				<path fill="#9DD2D2" stroke="#9DD2D2" stroke-width="1.51" d="M339.6,251.5l69.4,11.6l-31.7-40.2L339.6,251.5z"/>
				<path fill="#3D94C1" stroke="#3D94C1" stroke-width="1.51" d="M352.1,563.7l50.3,6.1L392,541.1L352.1,563.7z"/>
				<path fill="#87CCC2" stroke="#87CCC2" stroke-width="1.51" d="M389.9,308.9l13.9,60.7l72.4-9.5L389.9,308.9z"/>
				<path fill="#56B2CD" stroke="#56B2CD" stroke-width="1.51" d="M381.2,438.6l31.2,55.7l49.4-10.1L381.2,438.6z"/>
				<path fill="#5DB9CE" stroke="#5DB9CE" stroke-width="1.51" d="M381.2,438.6l80.7,45.6l16-29.5L381.2,438.6z"/>
				<path fill="#A8D8D7" stroke="#A8D8D7" stroke-width="1.51" d="M377.3,222.9l68.9-13.3l-52-33.5L377.3,222.9z"/>
				<path fill="#A4D6D2" stroke="#A4D6D2" stroke-width="1.51" d="M377.3,222.9L409,263l37.2-53.4L377.3,222.9z"/>
				<path fill="#66BFCC" stroke="#66BFCC" stroke-width="1.51" d="M376.4,408.6l4.8,30l63.7-39.9L376.4,408.6z"/>
				<path fill="#71C4C9" stroke="#71C4C9" stroke-width="1.51" d="M376.4,408.6l68.5-9.8l-41.2-29.2L376.4,408.6z"/>
				<path fill="#3F87B4" stroke="#3F87B4" stroke-width="1.51" d="M374.7,622.3l69.8-14.2l-42.1-38.4L374.7,622.3z"/>
				<path fill="#92D1C1" stroke="#92D1C1" stroke-width="1.51" d="M389.9,308.9l86.3,51.1l-6.5-56.6L389.9,308.9z"/>
				<path fill="#4590B9" stroke="#4590B9" stroke-width="1.51" d="M402.4,569.7l42.1,38.4l-2.6-32.6L402.4,569.7z"/>
				<path fill="#9CD4C9" stroke="#9CD4C9" stroke-width="1.51" d="M389.9,308.9l54.6-44.8l-35.6-1.2L389.9,308.9z"/>
				<path fill="#67BFCC" stroke="#67BFCC" stroke-width="1.51" d="M381.2,438.6l96.7,16.2l-33-56L381.2,438.6z"/>
				<path fill="#A4D7CE" stroke="#A4D7CE" stroke-width="1.51" d="M408.9,263l35.6,1.2l1.7-54.6L408.9,263z"/>
				<path fill="#4CA3C4" stroke="#4CA3C4" stroke-width="1.51" d="M392,541.1l81.5-10.4l-61.1-36.4L392,541.1z"/>
				<path fill="#4495BF" stroke="#4495BF" stroke-width="1.51" d="M392,541.1l10.4,28.6l39.5,5.8L392,541.1z"/>
				<path fill="#9AD4C6" stroke="#9AD4C6" stroke-width="1.51" d="M389.9,308.9l79.8-5.5l-25.1-39.3L389.9,308.9z"/>
				<path fill="#AFDCD8" stroke="#AFDCD8" stroke-width="1.51" d="M394.2,176.1l52,33.5l24.7-30.6L394.2,176.1z"/>
				<path fill="#4B9CC0" stroke="#4B9CC0" stroke-width="1.51" d="M392,541.1l49.9,34.4l31.7-44.8L392,541.1z"/>
				<path fill="#BBE4D3" stroke="#BBE4D3" stroke-width="1.51" d="M470.9,179l43.8,11.6l75.4-2.6L470.9,179z"/>
				<path fill="#7DCAC5" stroke="#7DCAC5" stroke-width="1.51" d="M403.7,369.6l41.2,29.2l31.2-38.7L403.7,369.6z"/>
				<path fill="#55ABC6" stroke="#55ABC6" stroke-width="1.51" d="M412.4,494.4l61.1,36.4l-11.7-46.5L412.4,494.4z"/>
				<path fill="#92D3BD" stroke="#92D3BD" stroke-width="1.51" d="M469.6,303.5l6.5,56.6l32.5-10.4L469.6,303.5z"/>
				<path fill="#6FC4C9" stroke="#6FC4C9" stroke-width="1.51" d="M444.9,398.8l33,56l32.1-27.7L444.9,398.8z"/>
				<path fill="#A5DAC6" stroke="#A5DAC6" stroke-width="1.51" d="M444.5,264.2l25.1,39.3l51.6-45.9L444.5,264.2z"/>
				<path fill="#ABDCCF" stroke="#ABDCCF" stroke-width="1.51" d="M444.5,264.2l63.7-50.3l-62-4.3L444.5,264.2z"/>
				<path fill="#ABDECB" stroke="#ABDECB" stroke-width="1.51" d="M444.5,264.2l76.7-6.6l-13-43.6L444.5,264.2z"/>
				<path fill="#5190B0" stroke="#5190B0" stroke-width="1.51" d="M444.5,608.2l64.6,20.5l23-67L444.5,608.2z"/>
				<path fill="#4E94B7" stroke="#4E94B7" stroke-width="1.51" d="M441.9,575.5l2.6,32.6l87.6-46.5L441.9,575.5z"/>
				<path fill="#539EBC" stroke="#539EBC" stroke-width="1.51" d="M441.9,575.5l90.2-13.9l-58.5-30.9L441.9,575.5z"/>
				<path fill="#B1DFD3" stroke="#B1DFD3" stroke-width="1.51" d="M446.2,209.6l62,4.3L470.9,179L446.2,209.6z"/>
				<path fill="#80CDC3" stroke="#80CDC3" stroke-width="1.51" d="M444.9,398.8l98.4-2l-67.2-36.7L444.9,398.8z"/>
				<path fill="#79CAC5" stroke="#79CAC5" stroke-width="1.51" d="M444.9,398.8l65,28.3l33.4-30.3L444.9,398.8z"/>
				<path fill="#B5E2D3" stroke="#B5E2D3" stroke-width="1.51" d="M470.9,179l37.3,34.9l6.5-23.4L470.9,179z"/>
				<path fill="#99D6BE" stroke="#99D6BE" stroke-width="1.51" d="M469.6,303.5l39,46.2l24.7-34.7L469.6,303.5z"/>
				<path fill="#64BAC9" stroke="#64BAC9" stroke-width="1.51" d="M461.8,484.3l70.7-13.6l-54.6-15.9L461.8,484.3z"/>
				<path fill="#5BACC2" stroke="#5BACC2" stroke-width="1.51" d="M461.8,484.3l11.7,46.5l74.6-4L461.8,484.3z"/>
				<path fill="#64B4C4" stroke="#64B4C4" stroke-width="1.51" d="M461.8,484.3l86.3,42.5l-15.6-56L461.8,484.3z"/>
				<path fill="#5B93AE" stroke="#5B93AE" stroke-width="1.51" d="M509.1,628.7l61.1-25.7L532,561.7L509.1,628.7z"/>
				<path fill="#8AD1C0" stroke="#8AD1C0" stroke-width="1.51" d="M476.1,360.1l67.2,36.7l-34.7-47.1L476.1,360.1z"/>
				<path fill="#A4DBC2" stroke="#A4DBC2" stroke-width="1.51" d="M469.6,303.5l63.7,11.6l-12.1-57.5L469.6,303.5z"/>
				<path fill="#5DA5BD" stroke="#5DA5BD" stroke-width="1.51" d="M473.5,530.7l58.5,30.9l16-34.9L473.5,530.7z"/>
				<path fill="#6CC1CB" stroke="#6CC1CB" stroke-width="1.51" d="M477.9,454.8l54.6,15.9L510,427.1L477.9,454.8z"/>
				<path fill="#AADDC0" stroke="#AADDC0" stroke-width="1.51" d="M521.2,257.5l12.1,57.5l62-8.7L521.2,257.5z"/>
				<path fill="#77C5C8" stroke="#77C5C8" stroke-width="1.51" d="M510,427.1l22.5,43.6l72.4-25.7L510,427.1z"/>
				<path fill="#608EA5" stroke="#608EA5" stroke-width="1.51" d="M509.1,628.7L640,617.1l-69.8-14.2L509.1,628.7z"/>
				<path fill="#9BD7BA" stroke="#9BD7BA" stroke-width="1.51" d="M508.7,349.7l91.5,3.5l-66.8-38.1L508.7,349.7z"/>
				<path fill="#92D4BE" stroke="#92D4BE" stroke-width="1.51" d="M508.7,349.7l34.7,47.1l56.8-43.6L508.7,349.7z"/>
				<path fill="#B9E3CE" stroke="#B9E3CE" stroke-width="1.51" d="M508.2,213.9l80.2,7.5l-73.7-30.9L508.2,213.9z"/>
				<path fill="#B5E2CA" stroke="#B5E2CA" stroke-width="1.51" d="M508.2,213.9l13,43.6l67.2-36.1L508.2,213.9z"/>
				<path fill="#7F9CB1" stroke="#7F9CB1" stroke-width="1.51" d="M718.1,606.7l127,0.9l-68.1-5.5L718.1,606.7z"/>
				<path fill="#B3E1C1" stroke="#B3E1C1" stroke-width="1.51" d="M521.2,257.5l74.1,48.8l-2.6-55.2L521.2,257.5z"/>
				<path fill="#BFE6CE" stroke="#BFE6CE" stroke-width="1.51" d="M514.7,190.5l73.7,30.9l1.7-33.5L514.7,190.5z"/>
				<path fill="#82CCC3" stroke="#82CCC3" stroke-width="1.51" d="M510,427.1l84.1-18.8l-50.7-11.6L510,427.1z"/>
				<path fill="#81CAC4" stroke="#81CAC4" stroke-width="1.51" d="M510,427.1l95,17.9l-10.8-36.7L510,427.1z"/>
				<path fill="#69B1C0" stroke="#69B1C0" stroke-width="1.51" d="M532.5,470.7l15.6,56l19.5,0.9L532.5,470.7z"/>
				<path fill="#629BB5" stroke="#629BB5" stroke-width="1.51" d="M532.1,561.7l38.2,41.3l1.3-37.3L532.1,561.7z"/>
				<path fill="#B8E3C7" stroke="#B8E3C7" stroke-width="1.51" d="M521.2,257.5l71.5-6.4l-4.3-29.7L521.2,257.5z"/>
				<path fill="#71B9C2" stroke="#71B9C2" stroke-width="1.51" d="M532.5,470.7l35.1,56.9l43.8-56.9L532.5,470.7L532.5,470.7z"/>
				<path fill="#67A8BA" stroke="#67A8BA" stroke-width="1.51" d="M548.1,526.7l23.4,39l-3.9-38.1L548.1,526.7z"/>
				<path fill="#A5DBBA" stroke="#A5DBBA" stroke-width="1.51" d="M533.4,315l66.8,38.1l-4.8-46.8L533.4,315z"/>
				<path fill="#79C3C6" stroke="#79C3C6" stroke-width="1.51" d="M532.5,470.7h78.9l-6.5-25.7L532.5,470.7z"/>
				<path fill="#63A3B9" stroke="#63A3B9" stroke-width="1.51" d="M532.1,561.7l39.5,4l-23.4-39L532.1,561.7z"/>
				<path fill="#8FD3BE" stroke="#8FD3BE" stroke-width="1.51" d="M543.3,396.7l50.7,11.6l6.1-55.2L543.3,396.7z"/>
				<path fill="#72A7B5" stroke="#72A7B5" stroke-width="1.51" d="M571.5,565.7l79.3,11.8l-7.4-57.8L571.5,565.7z"/>
				<path fill="#699CB1" stroke="#699CB1" stroke-width="1.51" d="M570.2,603l80.7-25.4l-79.3-11.8L570.2,603z"/>
				<path fill="#6EABB8" stroke="#6EABB8" stroke-width="1.51" d="M567.6,527.6l3.9,38.1l72-45.9L567.6,527.6z"/>
				<path fill="#75B6BD" stroke="#75B6BD" stroke-width="1.51" d="M567.6,527.6l75.9-7.8l-32.1-49.1L567.6,527.6z"/>
				<path fill="#6C97A9" stroke="#6C97A9" stroke-width="1.51" d="M570.2,603l69.8,14.2l10.8-39.6L570.2,603z"/>
				<path fill="#9FD9BA" stroke="#9FD9BA" stroke-width="1.51" d="M600.2,353.1l58.5,50.5l-0.4-54.6L600.2,353.1z"/>
				<path fill="#AADEB6" stroke="#AADEB6" stroke-width="1.51" d="M600.2,353.1l58.1-4l-0.9-35.2L600.2,353.1z"/>
				<path fill="#ABDEB7" stroke="#ABDEB7" stroke-width="1.51" d="M595.4,306.3l4.8,46.8l57.2-39.3L595.4,306.3z"/>
				<path fill="#B8E3BC" stroke="#B8E3BC" stroke-width="1.51" d="M595.4,306.3l62,7.5l1.7-56.6L595.4,306.3z"/>
				<path fill="#89CDC2" stroke="#89CDC2" stroke-width="1.51" d="M594.1,408.3l10.8,36.7l35.6-8.1L594.1,408.3z"/>
				<path fill="#95D5BC" stroke="#95D5BC" stroke-width="1.51" d="M594.1,408.3l64.6-4.6l-58.5-50.5L594.1,408.3z"/>
				<path fill="#C2E7C3" stroke="#C2E7C3" stroke-width="1.51" d="M592.8,251.2l66.3,6.1l15.2-23.1L592.8,251.2z"/>
				<path fill="#BAE4BE" stroke="#BAE4BE" stroke-width="1.51" d="M592.8,251.2l2.6,55.2l63.7-49.1L592.8,251.2z"/>
				<path fill="#C0E7C5" stroke="#C0E7C5" stroke-width="1.51" d="M588.4,221.4l4.3,29.7l81.5-17L588.4,221.4z"/>
				<path fill="#C7E9CC" stroke="#C7E9CC" stroke-width="1.51" d="M588.4,221.4l76.4-35.8l-74.6,2.3L588.4,221.4z"/>
				<path fill="#C8EACA" stroke="#C8EACA" stroke-width="1.51" d="M588.4,221.4l85.9,12.7l-9.5-48.5L588.4,221.4z"/>
				<path fill="#8FD1C0" stroke="#8FD1C0" stroke-width="1.51" d="M594.1,408.3l46.4,28.6l18.2-33.2L594.1,408.3z"/>
				<path fill="#80BEC1" stroke="#80BEC1" stroke-width="1.51" d="M611.4,470.7l32.1,49.1l34.7-52.3L611.4,470.7z"/>
				<path fill="#84C8C4" stroke="#84C8C4" stroke-width="1.51" d="M604.9,445l6.5,25.7l29.1-33.8L604.9,445z"/>
				<path fill="#86C8C5" stroke="#86C8C5" stroke-width="1.51" d="M611.4,470.7l66.8-3.2l-37.7-30.6L611.4,470.7z"/>
				<path fill="#A1D9BF" stroke="#A1D9BF" stroke-width="1.51" d="M658.3,349.1l0.4,54.6l65.9-8.4L658.3,349.1z"/>
				<path fill="#C3E8C1" stroke="#C3E8C1" stroke-width="1.51" d="M657.4,313.8l88.5-51.1l-86.7-5.5L657.4,313.8z"/>
				<path fill="#7DA9B9" stroke="#7DA9B9" stroke-width="1.51" d="M650.9,577.5l88.9,1.2l-6.5-52.9L650.9,577.5z"/>
				<path fill="#83BFC2" stroke="#83BFC2" stroke-width="1.51" d="M643.5,519.8l60.3-34.9l-25.6-17.3L643.5,519.8z"/>
				<path fill="#7BAEBA" stroke="#7BAEBA" stroke-width="1.51" d="M643.5,519.8l7.4,57.8l82.4-51.7L643.5,519.8z"/>
				<path fill="#92D1C4" stroke="#92D1C4" stroke-width="1.51" d="M640.5,436.9l75.4,0.6l-57.2-33.8L640.5,436.9z"/>
				<path fill="#8ECDC7" stroke="#8ECDC7" stroke-width="1.51" d="M640.5,436.9l37.7,30.6l37.7-30L640.5,436.9z"/>
				<path fill="#7399AC" stroke="#7399AC" stroke-width="1.51" d="M640,617.1l78-10.4l-67.2-29.2L640,617.1z"/>
				<path fill="#BEE6BF" stroke="#BEE6BF" stroke-width="1.51" d="M657.4,313.8l48.1,11.6l40.3-62.7L657.4,313.8z"/>
				<path fill="#B0E0B8" stroke="#B0E0B8" stroke-width="1.51" d="M657.4,313.8l0.9,35.2l41.2-9.2L657.4,313.8z"/>
				<path fill="#82B9C0" stroke="#82B9C0" stroke-width="1.51" d="M643.5,519.8l89.8,6.1l-29.5-41L643.5,519.8z"/>
				<path fill="#D0EDCE" stroke="#D0EDCE" stroke-width="1.51" d="M664.8,185.6l9.5,48.5l68.1-26L664.8,185.6z"/>
				<path fill="#AADDBD" stroke="#AADDBD" stroke-width="1.51" d="M658.3,349.1l66.3,46.2l-25.1-55.5L658.3,349.1z"/>
				<path fill="#B5E2BA" stroke="#B5E2BA" stroke-width="1.51" d="M657.4,313.8l42.1,26l6.1-14.4L657.4,313.8z"/>
				<path fill="#79A0B2" stroke="#79A0B2" stroke-width="1.51" d="M650.9,577.5l67.2,29.2l21.7-28L650.9,577.5z"/>
				<path fill="#9AD5C3" stroke="#9AD5C3" stroke-width="1.51" d="M658.7,403.7l57.2,33.8l8.7-42.2L658.7,403.7z"/>
				<path fill="#C8EAC6" stroke="#C8EAC6" stroke-width="1.51" d="M659.1,257.2l86.7,5.5l-71.5-28.6L659.1,257.2z"/>
				<path fill="#D6EFD2" stroke="#D6EFD2" stroke-width="1.51" d="M664.8,185.6l77.6,22.5l-9.5-34.7L664.8,185.6z"/>
				<path fill="#CFECCB" stroke="#CFECCB" stroke-width="1.51" d="M674.3,234.1l71.5,28.6l-3.5-54.6L674.3,234.1z"/>
				<path fill="#8DC9C8" stroke="#8DC9C8" stroke-width="1.51" d="M678.2,467.5l25.6,17.3l12.1-47.4L678.2,467.5z"/>
				<path fill="#C4E8C1" stroke="#C4E8C1" stroke-width="1.51" d="M705.5,325.4l82-6.4l-41.6-56.3L705.5,325.4z"/>
				<path fill="#91CACA" stroke="#91CACA" stroke-width="1.51" d="M703.8,484.8l59.8-15.9l-47.7-31.5L703.8,484.8z"/>
				<path fill="#B6E3BB" stroke="#B6E3BB" stroke-width="1.51" d="M699.4,339.8l78.9,9.2l-72.8-23.7L699.4,339.8z"/>
				<path fill="#B0E0BF" stroke="#B0E0BF" stroke-width="1.51" d="M699.4,339.8l25.1,55.5l53.8-46.2L699.4,339.8z"/>
				<path fill="#89A0BB" stroke="#89A0BB" stroke-width="1.51" d="M845.1,607.6l130.1-4.3l-82-3.5L845.1,607.6z"/>
				<path fill="#D4EECD" stroke="#D4EECD" stroke-width="1.51" d="M742.4,208.1l3.5,54.6l37.3-32.1L742.4,208.1z"/>
				<path fill="#ADDEC3" stroke="#ADDEC3" stroke-width="1.51" d="M724.6,395.3l49.9-2.9l3.9-43.3L724.6,395.3z"/>
				<path fill="#8CC1C5" stroke="#8CC1C5" stroke-width="1.51" d="M703.8,484.8l29.5,41l30.4-56.9L703.8,484.8z"/>
				<path fill="#BDE5BE" stroke="#BDE5BE" stroke-width="1.51" d="M705.5,325.4l72.8,23.7l9.1-30L705.5,325.4z"/>
				<path fill="#CCEBC6" stroke="#CCEBC6" stroke-width="1.51" d="M745.8,262.7l41.6,56.3l9.5-45.1L745.8,262.7z"/>
				<path fill="#7E9EB2" stroke="#7E9EB2" stroke-width="1.51" d="M718.1,606.7l59-4.6l-37.3-23.4L718.1,606.7z"/>
				<path fill="#97CFCC" stroke="#97CFCC" stroke-width="1.51" d="M715.9,437.5l47.7,31.5l16-14.4L715.9,437.5z"/>
				<path fill="#A1D8C5" stroke="#A1D8C5" stroke-width="1.51" d="M715.9,437.5l58.5-45.1l-49.9,2.9L715.9,437.5z"/>
				<path fill="#9ED5C9" stroke="#9ED5C9" stroke-width="1.51" d="M715.9,437.5l63.7,17l-5.2-62.1L715.9,437.5z"/>
				<path fill="#86B0BF" stroke="#86B0BF" stroke-width="1.51" d="M733.3,525.8l6.5,52.9l65-46.8L733.3,525.8z"/>
				<path fill="#E5F5DE" stroke="#E5F5DE" stroke-width="1.51" d="M783.6,174.1l43.8,8.4l77.2-15.6L783.6,174.1z"/>
				<path fill="#85ACBE" stroke="#85ACBE" stroke-width="1.51" d="M739.8,578.7l63.3-1.4l1.7-45.3L739.8,578.7z"/>
				<path fill="#8CBDC4" stroke="#8CBDC4" stroke-width="1.51" d="M733.3,525.8l71.5,6.1l-41.2-63L733.3,525.8z"/>
				<path fill="#DDF2D6" stroke="#DDF2D6" stroke-width="1.51" d="M732.8,173.5l9.5,34.7l41.2-34.1L732.8,173.5z"/>
				<path fill="#82A3B7" stroke="#82A3B7" stroke-width="1.51" d="M739.8,578.7l37.3,23.4l26-24.8L739.8,578.7z"/>
				<path fill="#DAF1D4" stroke="#DAF1D4" stroke-width="1.51" d="M742.4,208.1l40.8,22.5l0.4-56.6L742.4,208.1z"/>
				<path fill="#D1EDCB" stroke="#D1EDCB" stroke-width="1.51" d="M745.8,262.7L797,274l-13.9-43.3L745.8,262.7z"/>
				<path fill="#DEF2D7" stroke="#DEF2D7" stroke-width="1.51" d="M783.1,230.7l44.2-48.2l-43.8-8.4L783.1,230.7z"/>
				<path fill="#DCF2D6" stroke="#DCF2D6" stroke-width="1.51" d="M783.1,230.7l50.7-9.2l-6.5-39L783.1,230.7z"/>
				<path fill="#A3D7CD" stroke="#A3D7CD" stroke-width="1.51" d="M774.5,392.4l5.2,62.1l80.2-28.3L774.5,392.4z"/>
				<path fill="#B3E1C4" stroke="#B3E1C4" stroke-width="1.51" d="M774.5,392.4l66.3-29.5L778.4,349L774.5,392.4z"/>
				<path fill="#90C0C9" stroke="#90C0C9" stroke-width="1.51" d="M763.6,468.9l41.2,63l52.5-21.1L763.6,468.9z"/>
				<path fill="#96C7CE" stroke="#96C7CE" stroke-width="1.51" d="M763.6,468.9l93.7,41.9l-5.2-41L763.6,468.9z"/>
				<path fill="#98CDCF" stroke="#98CDCF" stroke-width="1.51" d="M763.6,468.9l88.5,0.9l-72.4-15.3L763.6,468.9z"/>
				<path fill="#88AEC1" stroke="#88AEC1" stroke-width="1.51" d="M803.1,577.2l33.4-11l-31.7-34.4L803.1,577.2z"/>
				<path fill="#D4EECD" stroke="#D4EECD" stroke-width="1.51" d="M783.1,230.7L797,274l41.6-10.7L783.1,230.7z"/>
				<path fill="#ABDDCC" stroke="#ABDDCC" stroke-width="1.51" d="M774.5,392.4l85.4,33.8l-9.1-45.9L774.5,392.4z"/>
				<path fill="#B2E0C8" stroke="#B2E0C8" stroke-width="1.51" d="M774.5,392.4l76.3-12.1l-10-17.3L774.5,392.4z"/>
				<path fill="#BCE5C2" stroke="#BCE5C2" stroke-width="1.51" d="M778.4,349.1l62.4,13.9l-53.3-43.9L778.4,349.1z"/>
				<path fill="#83A0B7" stroke="#83A0B7" stroke-width="1.51" d="M777.1,602.1l68.1,5.5l-42.1-30.3L777.1,602.1z"/>
				<path fill="#CBEBC7" stroke="#CBEBC7" stroke-width="1.51" d="M787.5,319l85.4-15.3L797,274L787.5,319z"/>
				<path fill="#D8F0D1" stroke="#D8F0D1" stroke-width="1.51" d="M783.1,230.7l55.5,32.6l-4.8-41.9L783.1,230.7z"/>
				<path fill="#9ED3D2" stroke="#9ED3D2" stroke-width="1.51" d="M779.7,454.5l72.4,15.3l7.8-43.6L779.7,454.5z"/>
				<path fill="#D2EDCB" stroke="#D2EDCB" stroke-width="1.51" d="M797,274l75.9,29.7l-34.3-40.4L797,274z"/>
				<path fill="#C3E8C5" stroke="#C3E8C5" stroke-width="1.51" d="M787.5,319l53.3,43.9l32.1-59.2L787.5,319z"/>
				<path fill="#86A6BD" stroke="#86A6BD" stroke-width="1.51" d="M803.1,577.2l42.1,30.3l-8.7-41.3L803.1,577.2z"/>
				<path fill="#8DB5C6" stroke="#8DB5C6" stroke-width="1.51" d="M804.8,531.9l31.7,34.4l20.8-55.5L804.8,531.9z"/>
				<path fill="#C1E7C8" stroke="#C1E7C8" stroke-width="1.51" d="M840.8,362.9l62-0.6l-29.9-58.6L840.8,362.9z"/>
				<path fill="#8EB4C7" stroke="#8EB4C7" stroke-width="1.51" d="M836.5,566.3l63.7-9.5l-42.9-45.9L836.5,566.3z"/>
				<path fill="#87A3BC" stroke="#87A3BC" stroke-width="1.51" d="M836.5,566.3l8.7,41.3l48.1-7.8L836.5,566.3z"/>
				<path fill="#DCF1D5" stroke="#DCF1D5" stroke-width="1.51" d="M833.9,221.4l4.8,41.9l57.2-47.1L833.9,221.4z"/>
				<path fill="#E0F3DA" stroke="#E0F3DA" stroke-width="1.51" d="M827.4,182.4l6.5,39l62-5.2L827.4,182.4z"/>
				<path fill="#E5F5DF" stroke="#E5F5DF" stroke-width="1.51" d="M827.4,182.4l68.5,33.8l8.7-49.4L827.4,182.4z"/>
				<path fill="#D4EECE" stroke="#D4EECE" stroke-width="1.51" d="M838.6,263.3l34.3,40.4l31.2-25.4L838.6,263.3z"/>
				<path fill="#DAF1D4" stroke="#DAF1D4" stroke-width="1.51" d="M838.6,263.3l65.5,15l-8.2-62.1L838.6,263.3z"/>
				<path fill="#8BABC4" stroke="#8BABC4" stroke-width="1.51" d="M836.5,566.3l56.8,33.5l6.9-43L836.5,566.3z"/>
				<path fill="#AFDFD0" stroke="#AFDFD0" stroke-width="1.51" d="M850.8,380.3l9.1,45.9l55.5-36.7L850.8,380.3z"/>
				<path fill="#A0D3D7" stroke="#A0D3D7" stroke-width="1.51" d="M852.1,469.8l61.6-2.3l-53.8-41.3L852.1,469.8z"/>
				<path fill="#B8E3CA" stroke="#B8E3CA" stroke-width="1.51" d="M840.8,362.9l10,17.3l52-17.9L840.8,362.9z"/>
				<path fill="#9AC9D2" stroke="#9AC9D2" stroke-width="1.51" d="M852.1,469.8l5.2,41l56.4-43.3L852.1,469.8z"/>
				<path fill="#92B8CC" stroke="#92B8CC" stroke-width="1.51" d="M857.3,510.8l42.9,45.9l33-24.5L857.3,510.8z"/>
				<path fill="#B7E2CD" stroke="#B7E2CD" stroke-width="1.51" d="M850.8,380.3l64.6,9.2l-12.6-27.1L850.8,380.3z"/>
				<path fill="#CAEBCB" stroke="#CAEBCB" stroke-width="1.51" d="M872.9,303.7l29.9,58.6l13.9-67.9L872.9,303.7z"/>
				<path fill="#A5D5D7" stroke="#A5D5D7" stroke-width="1.51" d="M859.9,426.2l53.8,41.3l23.8-23.4L859.9,426.2z"/>
				<path fill="#97C3D1" stroke="#97C3D1" stroke-width="1.51" d="M857.3,510.8l75.9,21.4l-19.5-64.7L857.3,510.8z"/>
				<path fill="#ACDBD4" stroke="#ACDBD4" stroke-width="1.51" d="M859.9,426.2l77.6,17.9l-22.1-54.6L859.9,426.2z"/>
				<path fill="#CAEACC" stroke="#CAEACC" stroke-width="1.51" d="M902.8,362.4l62.4-22l-48.6-45.9L902.8,362.4z"/>
				<path fill="#D3EECF" stroke="#D3EECF" stroke-width="1.51" d="M872.9,303.7l43.8-9.2l-12.6-16.2L872.9,303.7z"/>
				<path fill="#9DC7D5" stroke="#9DC7D5" stroke-width="1.51" d="M913.6,467.5l19.5,64.7l55.1-45.1L913.6,467.5z"/>
				<path fill="#E9F7E2" stroke="#E9F7E2" stroke-width="1.51" d="M895.9,216.2l74.1-23.4l-65.5-26L895.9,216.2z"/>
				<path fill="#E8F6E2" stroke="#E8F6E2" stroke-width="1.51" d="M895.9,216.2l68.1-6.1l6.1-17.3L895.9,216.2z"/>
				<path fill="#DDF2D6" stroke="#DDF2D6" stroke-width="1.51" d="M895.9,216.2l8.2,62.1l59.4,1.4L895.9,216.2z"/>
				<path fill="#E2F4DC" stroke="#E2F4DC" stroke-width="1.51" d="M895.9,216.2l67.6,63.5l0.4-69.6L895.9,216.2z"/>
				<path fill="#8EADC8" stroke="#8EADC8" stroke-width="1.51" d="M893.3,599.8l72.4-39.6l-65.5-3.5L893.3,599.8z"/>
				<path fill="#8EA8C5" stroke="#8EA8C5" stroke-width="1.51" d="M893.3,599.8l82,3.5l-9.5-43L893.3,599.8z"/>
				<path fill="#D0EDD0" stroke="#D0EDD0" stroke-width="1.51" d="M916.7,294.5l48.6,45.9l15.2-18.8L916.7,294.5z"/>
				<path fill="#B1DED6" stroke="#B1DED6" stroke-width="1.51" d="M915.4,389.5l22.1,54.6l48.1-40.1L915.4,389.5z"/>
				<path fill="#93B4CC" stroke="#93B4CC" stroke-width="1.51" d="M900.2,556.7l65.5,3.5l-32.5-28L900.2,556.7z"/>
				<path fill="#BFE6CF" stroke="#BFE6CF" stroke-width="1.51" d="M902.8,362.4l12.6,27.1l49.9-49.1L902.8,362.4z"/>
				<path fill="#D8F0D2" stroke="#D8F0D2" stroke-width="1.51" d="M904.1,278.3l12.6,16.2l46.8-14.7L904.1,278.3z"/>
				<path fill="#9AC0D3" stroke="#9AC0D3" stroke-width="1.51" d="M933.2,532.2l36.9,2.9l18.2-47.9L933.2,532.2z"/>
				<path fill="#BDE5D3" stroke="#BDE5D3" stroke-width="1.51" d="M915.4,389.5l70.2,14.4l-20.4-63.5L915.4,389.5z"/>
				<path fill="#A4D1DA" stroke="#A4D1DA" stroke-width="1.51" d="M913.6,467.5l74.6,19.6l-50.7-43L913.6,467.5z"/>
				<path fill="#D6EFD2" stroke="#D6EFD2" stroke-width="1.51" d="M916.7,294.5l63.7,27.1l-16.9-41.9L916.7,294.5z"/>
				<path fill="#AFDBDB" stroke="#AFDBDB" stroke-width="1.51" d="M937.5,444.1h53.3l-5.2-40.1L937.5,444.1z"/>
				<path fill="#A8D5DE" stroke="#A8D5DE" stroke-width="1.51" d="M937.5,444.1l50.7,43l2.6-43H937.5z"/>
				<path fill="#96B8CF" stroke="#96B8CF" stroke-width="1.51" d="M933.2,532.2l32.5,28l4.3-25.1L933.2,532.2z"/>
				<path fill="#C7E9D2" stroke="#C7E9D2" stroke-width="1.51" d="M965.2,340.4l20.4,63.5l-5.2-82.3L965.2,340.4z"/>
				<path fill="#E6F6DF" stroke="#E6F6DF" stroke-width="1.51" d="M963.5,279.8l6.5-86.9l-6.1,17.3L963.5,279.8z"/>
				<path fill="#E0F3D9" stroke="#E0F3D9" stroke-width="1.51" d="M963.5,279.8l16.9,41.9L970,192.8L963.5,279.8z"/>
				<path fill="#94B0CD" stroke="#94B0CD" stroke-width="1.51" d="M965.7,560.2l9.5,43L970,535L965.7,560.2z"/>
				<path fill="#98B9D1" stroke="#98B9D1" stroke-width="1.51" d="M970,535.1l5.2,68.2l13-116.1L970,535.1z"/>
				<path fill="#BCE4D6" stroke="#BCE4D6" stroke-width="1.51" d="M980.4,321.6l5.2,82.3l5.2,40.1L980.4,321.6z"/>
			</g>
		</g>
	</g>
</g>
</svg>
