<?xml version="1.0" encoding="utf-8"?>
<!-- Generator: Adobe Illustrator 18.0.0, SVG Export Plug-In . SVG Version: 6.00 Build 0)  -->
<!DOCTYPE svg PUBLIC "-//W3C//DTD SVG 1.1//EN" "http://www.w3.org/Graphics/SVG/1.1/DTD/svg11.dtd">
<svg version="1.1" id="Layer_1" xmlns="http://www.w3.org/2000/svg" xmlns:xlink="http://www.w3.org/1999/xlink" x="0px" y="0px"
	 viewBox="0 0 32.2 32.2" enable-background="new 0 0 32.2 32.2" xml:space="preserve">
<g>
	<g>
		<path fill="#FFFFFF" d="M15.9,32.2C7.1,32.2-0.2,25-0.2,16.1C-0.2,7.2,7.1,0,15.9,0S32,7.2,32,16.1C32,25,24.8,32.2,15.9,32.2z
			 M15.9,0.6c-8.6,0-15.5,7-15.5,15.5s7,15.5,15.5,15.5s15.5-7,15.5-15.5S24.5,0.6,15.9,0.6z"/>
	</g>
	<g>
		<path fill="#FFFFFF" d="M8.1,17.1c0.5,1.8,1,3.5,1.5,5.3c0.2,0.7,0.4,1.3,0.8,1.9c0.8,1.1,1.8,1.9,3.1,2.4
			c0.1,0.1,0.4,0.1,0.4,0.2c0.1,0.1,0,0.3,0,0.5c-0.2,1.5-0.3,3.1-0.5,4.6h4.8c0-1.1,0-2.1-0.1-3.2c0-0.7,0-1.4-0.1-2.1
			c0-0.1,0-0.2,0.1-0.2c0.5-0.3,1-0.6,1.4-1.1c1.5-1.5,2.2-3.3,2.4-5.4c0.1-1.4,0.1-2.9,0.1-4.4c0-2.1-0.1-4.2-0.2-6.3
			c0-0.4-0.3-0.7-0.6-0.8c-0.4-0.1-0.7,0-1,0.3c-0.2,0.2-0.3,0.5-0.3,0.8c0,1.9,0,3.7,0,5.6c0,0.1,0,0.2,0,0.3
			c0,0.2-0.1,0.3-0.2,0.4c-0.2,0.1-0.3,0-0.5-0.1c-0.2-0.1-0.1-0.3-0.1-0.5c0-3.1,0-6.1,0-9.2c0-0.2-0.1-0.4-0.2-0.5
			c-0.2-0.3-0.6-0.5-1-0.4c-0.4,0.1-0.6,0.4-0.7,0.9c0,0.6,0,1.3,0,1.9c0,1.6,0,3.3,0,4.9c0,0.7,0,1.3,0,2c0,0.2-0.1,0.3-0.2,0.4
			c-0.2,0.2-0.6,0-0.6-0.4c0-2.2,0-4.5,0-6.7c0-1.6,0-3.2,0-4.8c0-0.5-0.4-0.9-0.9-0.9c-0.5,0-0.9,0.4-0.9,0.9c0,0.4,0,0.7,0,1.1
			c0,3.4,0,6.8,0,10.3c0,0.1,0,0.2,0,0.2c0,0.2-0.1,0.3-0.3,0.4c-0.3,0.1-0.5-0.1-0.5-0.5c0-3,0-5.9,0-8.9c0-0.2,0-0.4-0.1-0.6
			c-0.1-0.4-0.5-0.7-1-0.7C12.3,4.7,12,5.1,12,5.6c0,0.5,0,1,0,1.6c0,3.4,0,6.9,0,10.3c0,0.1,0,0.2,0,0.3c-0.1,0.2-0.3,0.4-0.5,0.3
			c-0.2,0-0.3-0.2-0.4-0.4c-0.7-1.6-1.5-3.2-2.2-4.8c-0.2-0.5-0.7-0.7-1.2-0.5c-0.4,0.2-0.7,0.7-0.5,1.1C7.4,14.7,7.8,15.9,8.1,17.1
			z"/>
	</g>
</g>
</svg>
