<?xml version="1.0" encoding="utf-8"?>
<!-- Generator: Adobe Illustrator 18.0.0, SVG Export Plug-In . SVG Version: 6.00 Build 0)  -->
<!DOCTYPE svg PUBLIC "-//W3C//DTD SVG 1.1//EN" "http://www.w3.org/Graphics/SVG/1.1/DTD/svg11.dtd">
<svg version="1.1" id="Layer_1" xmlns="http://www.w3.org/2000/svg" xmlns:xlink="http://www.w3.org/1999/xlink" x="0px" y="0px"
	 viewBox="383.3 242.2 194.5 75.9" enable-background="new 383.3 242.2 194.5 75.9" xml:space="preserve">
<g>
	<g>
		<rect x="388.2" y="310.7" fill="#FFA033" width="1.3" height="7.4"/>
		<g>
			<path fill="#FFB35C" d="M394.4,307.8c0,3.1-2.5,5.5-5.5,5.5v-18.6C388.8,294.7,394.4,304.7,394.4,307.8z"/>
			<path fill="#FFA033" d="M383.3,307.8c0-3.1,5.5-13.1,5.5-13.1v18.6C385.8,313.3,383.3,310.8,383.3,307.8z"/>
		</g>
	</g>
	<g>
		<rect x="464.9" y="310.7" fill="#338EC0" width="1.3" height="7.4"/>
		<g>
			<path fill="#5CA5CD" d="M471.1,307.8c0,3.1-2.5,5.5-5.5,5.5v-18.6C465.5,294.7,471.1,304.7,471.1,307.8z"/>
			<path fill="#338EC0" d="M460,307.8c0-3.1,5.5-13.1,5.5-13.1v18.6C462.5,313.3,460,310.8,460,307.8z"/>
		</g>
	</g>
	<g>
		<rect x="571.6" y="308.2" fill="#338EC0" width="1.3" height="7.4"/>
		<g>
			<path fill="#5CA5CD" d="M577.8,305.3c0,3.1-2.5,5.5-5.5,5.5v-18.6C572.3,292.2,577.8,302.2,577.8,305.3z"/>
			<path fill="#338EC0" d="M566.7,305.3c0-3.1,5.5-13.1,5.5-13.1v18.6C569.2,310.8,566.7,308.3,566.7,305.3z"/>
		</g>
	</g>
	<g>
		<rect x="445.4" y="307" fill="#F2FFFF" width="1.3" height="7.4"/>
		<g>
			<path fill="#F2FFFF" d="M451.6,304c0,3.1-2.5,5.5-5.5,5.5v-18.6C446.1,290.9,451.6,301,451.6,304z"/>
			<path fill="#F2FFFF" d="M440.5,304c0-3.1,5.5-13.1,5.5-13.1v18.6C443,309.5,440.5,307.1,440.5,304z"/>
		</g>
	</g>
	<g>
		<path fill="#338EC0" d="M419.8,301.9c0.9,0.8,1.8,1.6,2.7,2.4c-0.7,0.4-1.3,0.8-2,1.2c-0.8,0.4-1.1,1-1,1.9
			c0.1,1.6,0.1,3.2,0.3,4.7c0,0.4,0.2,0.8,0.5,1.1c0.2,0.2,0.8,0.2,1,0c0.3-0.2,0.5-0.7,0.5-1c0-1.2-0.1-2.4-0.2-3.7
			c0-0.4,0.1-0.7,0.5-0.9c1.1-0.6,2.2-1.3,3.3-2c1.2-0.7,1.3-1.8,0.3-2.8c-1.3-1.2-2.6-2.4-3.9-3.6c-0.9-0.8-1.9-0.6-2.5,0.4
			s-1.1,1.9-1.7,2.9c-0.2,0.3-0.4,0.4-0.7,0.5c-0.9,0-1.7,0.1-2.6,0.1c-0.5,0-0.9,0.2-0.9,0.8c0,0.6,0.4,0.7,0.9,0.7
			c1.1-0.1,2.3-0.1,3.4-0.2c0.5,0,0.8-0.2,1-0.6C419.1,303.2,419.4,302.6,419.8,301.9z"/>
		<path fill="#338EC0" d="M428.4,316.6c-2.8,0.1-5.2-2-5.3-4.8c-0.1-2.8,2-5.1,4.8-5.2s5.1,2,5.2,4.8
			C433.3,314.1,431.2,316.5,428.4,316.6z M432.3,311.4c-0.1-2.3-2.1-4-4.3-3.9c-2.3,0.1-4,2.1-3.9,4.3c0.1,2.3,2.1,4,4.3,3.9
			C430.7,315.6,432.4,313.6,432.3,311.4z"/>
		<path fill="#338EC0" d="M413,307.3c2.8-0.2,5.2,1.9,5.4,4.7c0.2,2.8-1.9,5.1-4.7,5.3c-2.8,0.2-5.1-1.9-5.3-4.7
			C408.1,309.9,410.2,307.5,413,307.3z M409.2,312.6c0.1,2.3,2,4,4.3,3.9s4-2,3.9-4.3s-2-4-4.3-3.9
			C410.9,308.3,409.1,310.3,409.2,312.6z"/>
		<path fill="#338EC0" d="M419.5,297.8c-0.1-1.1-0.9-1.8-2-1.8c-1.1,0.1-1.8,0.9-1.8,2c0,1,0.9,1.9,2,1.8
			C418.8,299.7,419.6,298.8,419.5,297.8z"/>
	</g>
	<g>
		<rect x="547.4" y="289.8" fill="#FCD07A" width="16.7" height="28.3"/>
		<rect x="550.5" y="272.1" fill="#FFA033" width="10.5" height="14.7"/>
		<rect x="555" y="266.4" fill="#FFA033" width="1.6" height="14.7"/>
		<polygon fill="#FFA033" points="554.2,283.9 554.2,281.1 547.4,281.1 547.4,278.5 564.1,278.5 564.1,281.1 557.3,281.1 
			557.3,283.9 564.1,283.9 564.1,287.6 557.3,287.6 557.3,290.3 564.1,290.3 564.1,294 557.3,294 557.3,296.8 564.1,296.8 
			564.1,300.4 557.3,300.4 557.3,303.2 564.1,303.2 564.1,306.9 557.3,306.9 557.3,309.6 564.1,309.6 564.1,313.3 557.3,313.3 
			557.3,316.1 564.1,316.1 564.1,318 547.4,318 547.4,316.1 554.2,316.1 554.2,313.3 547.4,313.3 547.4,309.6 554.2,309.6 
			554.2,306.9 547.4,306.9 547.4,303.2 554.2,303.2 554.2,300.4 547.4,300.4 547.4,296.8 554.2,296.8 554.2,294 547.4,294 
			547.4,290.3 554.2,290.3 554.2,287.6 547.4,287.6 547.4,283.9 		"/>
		<rect x="557.3" y="281.1" fill="#FCD07A" width="6.8" height="2.8"/>
		<rect x="547.4" y="281.1" fill="#FCD07A" width="6.8" height="2.8"/>
		<rect x="557.3" y="287.6" fill="#FCD07A" width="6.8" height="2.8"/>
		<rect x="547.4" y="287.6" fill="#FCD07A" width="6.8" height="2.8"/>
		<rect x="557.3" y="294" fill="#FCD07A" width="6.8" height="2.8"/>
		<rect x="547.4" y="294" fill="#FCD07A" width="6.8" height="2.8"/>
		<rect x="557.3" y="300.4" fill="#FCD07A" width="6.8" height="2.8"/>
		<rect x="547.4" y="300.4" fill="#FCD07A" width="6.8" height="2.8"/>
		<rect x="557.3" y="306.9" fill="#FCD07A" width="6.8" height="2.8"/>
		<rect x="547.4" y="306.9" fill="#FCD07A" width="6.8" height="2.8"/>
		<rect x="556.9" y="312.9" fill="#FCD07A" width="7.2" height="3.6"/>
		<rect x="547.4" y="312.5" fill="#FCD07A" width="7.5" height="4.4"/>
	</g>
	<g>
		<rect x="526.8" y="250.4" fill="#338EC0" width="18.8" height="55.2"/>
		<rect x="528.9" y="246.2" fill="#338EC0" width="14.9" height="6.3"/>
		<rect x="530.7" y="242.2" fill="#338EC0" width="11.5" height="4.8"/>
		<rect x="540.7" y="253.4" fill="#ADD2E6" width="2.3" height="5.1"/>
		<rect x="537" y="253.4" fill="#ADD2E6" width="2.3" height="5.1"/>
		<rect x="533.4" y="253.4" fill="#ADD2E6" width="2.3" height="5.1"/>
		<rect x="529.8" y="253.4" fill="#ADD2E6" width="2.3" height="5.1"/>
		<rect x="540.7" y="260.4" fill="#ADD2E6" width="2.3" height="5.1"/>
		<rect x="537" y="260.4" fill="#ADD2E6" width="2.3" height="5.1"/>
		<rect x="533.4" y="260.4" fill="#ADD2E6" width="2.3" height="5.1"/>
		<rect x="529.8" y="260.4" fill="#ADD2E6" width="2.3" height="5.1"/>
		<rect x="540.7" y="267.5" fill="#ADD2E6" width="2.3" height="5.1"/>
		<rect x="537" y="267.5" fill="#ADD2E6" width="2.3" height="5.1"/>
		<rect x="533.4" y="267.5" fill="#ADD2E6" width="2.3" height="5.1"/>
		<rect x="529.8" y="267.5" fill="#ADD2E6" width="2.3" height="5.1"/>
		<rect x="540.7" y="274.5" fill="#ADD2E6" width="2.3" height="5.1"/>
		<rect x="537" y="274.5" fill="#ADD2E6" width="2.3" height="5.1"/>
		<rect x="533.4" y="274.5" fill="#ADD2E6" width="2.3" height="5.1"/>
		<rect x="529.8" y="274.5" fill="#ADD2E6" width="2.3" height="5.1"/>
	</g>
	<g>
		<polygon fill="#338EC0" points="500.4,318 517.9,318 517.9,283.4 514.3,277 504.1,277 500.4,283.4 		"/>
		<rect x="511.6" y="283.5" fill="#ADD2E6" width="2.3" height="5.1"/>
		<rect x="508" y="283.5" fill="#ADD2E6" width="2.3" height="5.1"/>
		<rect x="504.4" y="283.5" fill="#ADD2E6" width="2.3" height="5.1"/>
		<rect x="511.6" y="290" fill="#ADD2E6" width="2.3" height="5.1"/>
		<rect x="508" y="290" fill="#ADD2E6" width="2.3" height="5.1"/>
		<rect x="504.4" y="290" fill="#ADD2E6" width="2.3" height="5.1"/>
		<rect x="511.6" y="296.4" fill="#ADD2E6" width="2.3" height="5.1"/>
		<rect x="508" y="296.4" fill="#ADD2E6" width="2.3" height="5.1"/>
		<rect x="504.4" y="296.4" fill="#ADD2E6" width="2.3" height="5.1"/>
	</g>
	<g>
		<rect x="514.2" y="285.1" fill="#FFA033" width="17.4" height="33"/>
		<rect x="525.3" y="289" fill="#FCD07A" width="3.5" height="1.7"/>
		<rect x="521.1" y="289" fill="#FCD07A" width="3.5" height="1.7"/>
		<rect x="517" y="289" fill="#FCD07A" width="3.5" height="1.7"/>
		<rect x="525.3" y="292.1" fill="#FCD07A" width="3.5" height="1.7"/>
		<rect x="521.1" y="292.1" fill="#FCD07A" width="3.5" height="1.7"/>
		<rect x="517" y="292.1" fill="#FCD07A" width="3.5" height="1.7"/>
		<rect x="525.3" y="295.2" fill="#FCD07A" width="3.5" height="1.7"/>
		<rect x="521.1" y="295.2" fill="#FCD07A" width="3.5" height="1.7"/>
		<rect x="517" y="295.2" fill="#FCD07A" width="3.5" height="1.7"/>
		<rect x="525.3" y="298.4" fill="#FCD07A" width="3.5" height="1.7"/>
		<rect x="521.1" y="298.4" fill="#FCD07A" width="3.5" height="1.7"/>
		<rect x="517" y="298.4" fill="#FCD07A" width="3.5" height="1.7"/>
		<rect x="525.3" y="301.5" fill="#FCD07A" width="3.5" height="1.7"/>
		<rect x="521.1" y="301.5" fill="#FCD07A" width="3.5" height="1.7"/>
		<rect x="517" y="301.5" fill="#FCD07A" width="3.5" height="1.7"/>
		<rect x="525.3" y="304.7" fill="#FCD07A" width="3.5" height="1.7"/>
		<rect x="521.1" y="304.7" fill="#FCD07A" width="3.5" height="1.7"/>
		<rect x="517" y="304.7" fill="#FCD07A" width="3.5" height="1.7"/>
	</g>
	<g>
		<polygon fill="#AFC01D" points="480.7,318.1 498.1,318.1 498.1,296.9 489.4,285.1 480.7,296.9 		"/>
		<path fill="#7EA800" d="M493.3,299.6L493.3,299.6c0-0.7,0.6-1.3,1.3-1.3c0.7,0,1.3,0.6,1.3,1.3l0,0l0,0v4.1h-2.6L493.3,299.6
			L493.3,299.6z"/>
		<path fill="#7EA800" d="M489.8,299.6L489.8,299.6c0-0.7,0.6-1.3,1.3-1.3c0.7,0,1.3,0.6,1.3,1.3l0,0l0,0v4.1h-2.6L489.8,299.6
			L489.8,299.6z"/>
		<path fill="#7EA800" d="M486.4,299.6L486.4,299.6c0-0.7,0.6-1.3,1.3-1.3c0.7,0,1.3,0.6,1.3,1.3l0,0l0,0v4.1h-2.6L486.4,299.6
			L486.4,299.6z"/>
		<path fill="#7EA800" d="M482.9,299.6L482.9,299.6c0-0.7,0.6-1.3,1.3-1.3c0.7,0,1.3,0.6,1.3,1.3l0,0l0,0v4.1h-2.6L482.9,299.6
			L482.9,299.6z"/>
		<path fill="#7EA800" d="M493.3,306.2L493.3,306.2c0-0.7,0.6-1.3,1.3-1.3c0.7,0,1.3,0.6,1.3,1.3l0,0l0,0v4.1h-2.6L493.3,306.2
			L493.3,306.2z"/>
		<path fill="#7EA800" d="M489.8,306.2L489.8,306.2c0-0.7,0.6-1.3,1.3-1.3c0.7,0,1.3,0.6,1.3,1.3l0,0l0,0v4.1h-2.6L489.8,306.2
			L489.8,306.2z"/>
		<path fill="#7EA800" d="M486.4,306.2L486.4,306.2c0-0.7,0.6-1.3,1.3-1.3c0.7,0,1.3,0.6,1.3,1.3l0,0l0,0v4.1h-2.6L486.4,306.2
			L486.4,306.2z"/>
		<path fill="#7EA800" d="M482.9,306.2L482.9,306.2c0-0.7,0.6-1.3,1.3-1.3c0.7,0,1.3,0.6,1.3,1.3l0,0l0,0v4.1h-2.6L482.9,306.2
			L482.9,306.2z"/>
	</g>
	<g>
		<polygon fill="#F2FFFF" points="530.3,318 547.8,318 547.8,296.8 539,285 530.3,296.8 		"/>
		<rect x="540" y="293.9" fill="#DCDCDC" width="2.3" height="5.1"/>
		<rect x="536.4" y="293.9" fill="#DCDCDC" width="2.3" height="5.1"/>
		<rect x="540" y="300.7" fill="#DCDCDC" width="2.3" height="5.1"/>
		<rect x="536.4" y="300.7" fill="#DCDCDC" width="2.3" height="5.1"/>
	</g>
</g>
</svg>
