<?xml version="1.0" encoding="utf-8"?>
<!-- Generator: Adobe Illustrator 16.0.0, SVG Export Plug-In . SVG Version: 6.00 Build 0)  -->
<!DOCTYPE svg PUBLIC "-//W3C//DTD SVG 1.1//EN" "http://www.w3.org/Graphics/SVG/1.1/DTD/svg11.dtd">
<svg version="1.1" id="Layer_1" xmlns="http://www.w3.org/2000/svg" xmlns:xlink="http://www.w3.org/1999/xlink" x="0px" y="0px"
	 width="690.944px" height="445.518px" viewBox="0 0 690.944 445.518" enable-background="new 0 0 690.944 445.518"
	 xml:space="preserve">
<g>
	<path fill="#FFFFFF" d="M504.229,166.415c-21.911-21.667-43.834-43.322-65.727-65.008c-6.273-6.215-12.554-12.428-18.665-18.8
		c-12.903-13.453-13.104-34.918-0.298-48.438c7.559-7.98,15.352-15.756,23.323-23.325c15.349-14.573,36.376-14.501,51.458,0.479
		c38.422,38.161,76.646,76.522,114.941,114.812c23.566,23.563,47.168,47.09,70.66,70.726c14.604,14.693,14.759,37.278,0.079,51.999
		c-61.654,61.822-123.379,123.576-185.209,185.224c-15.477,15.431-37.582,15.129-53.2-0.2c-6.659-6.536-13.264-13.129-19.813-19.773
		c-15.768-15.995-15.708-37.411,0.119-53.306c25.98-26.091,51.977-52.166,77.96-78.255c1.256-1.26,2.446-2.586,4.553-4.82
		c-2.98,0-4.882,0-6.783,0c-63.318,0-396.683,0.003-460.001-0.002c-23.067-0.002-36.82-13.092-37.378-36.182
		c-0.334-13.816-0.421-27.679,0.315-41.471c1.023-19.154,15.333-32.138,34.527-32.148c64.318-0.036,398.684-0.014,463.002-0.015
		c1.782,0,3.564,0,5.348,0C503.704,167.412,503.966,166.914,504.229,166.415z"/>
</g>
</svg>
