<?xml version="1.0" encoding="utf-8"?>
<!-- Generator: Adobe Illustrator 18.0.0, SVG Export Plug-In . SVG Version: 6.00 Build 0)  -->
<!DOCTYPE svg PUBLIC "-//W3C//DTD SVG 1.1//EN" "http://www.w3.org/Graphics/SVG/1.1/DTD/svg11.dtd">
<svg version="1.1" id="Layer_1" xmlns="http://www.w3.org/2000/svg" xmlns:xlink="http://www.w3.org/1999/xlink" x="0px" y="0px"
	 viewBox="0 0 41.8 32.2" enable-background="new 0 0 41.8 32.2" xml:space="preserve">
<g>
	<path fill="#FFFFFF" d="M29.9,18.3C29.9,18.3,29.9,18.3,29.9,18.3c-0.7,0-1.3-0.2-1.8-0.5C28.6,18.2,29.2,18.3,29.9,18.3z"/>
	<path fill="#FFFFFF" d="M33.8,15.4c0.3-2.7-1.4-4-1.4-4l0,0c-0.7-0.6-1.6-1-2.5-0.9c-2.1,0-3.9,1.8-3.9,3.9c0,0.1,0,0.2,0,0.3
		c0.6,0.2,2.2,0.8,3.6,0.8l-0.1,0.2c-0.9,0.1-2.2,0.3-3.1,0.4c0.4,0.7,0.9,1.3,1.6,1.7v0l0,0c0.5,0.2,1.2,0.4,1.8,0.5
		c1.9,0.2,4-0.2,4-0.2C33.1,18.3,33.7,16.5,33.8,15.4z"/>
	<path fill="#FFFFFF" d="M12.7,8.2c-2.1,0-3.9,1.8-3.9,3.9c0,2.1,1.8,3.9,3.9,3.9c1.4,0,2.6-0.7,3.2-1.8c-1.6-0.2-5.1-0.7-3.7-0.6
		c1.7,0.1,4-0.8,4.3-0.9c0-0.2,0-0.4,0-0.6C16.6,9.9,14.8,8.2,12.7,8.2z"/>
	<g>
		<path fill="#FFFFFF" d="M25.9,5.5h-0.8c-0.7,0-1.1,0.5-1.5,1c-1.1,1.4-2.1,2.8-3.2,4.3c0,0,0,0,0,0c-0.7,1-1.5,2-2.2,3
			c-0.6,0.8-1.1,1.6-1.7,2.3c-0.1,0.2-0.4,0.4-0.6,0.4c-1.4,0.4-2.8,0.7-4.2,1.1c-0.3,0.1-0.5,0-0.8-0.2c-2-2.1-3.4-3.5-5-5.1
			c-0.8-0.8-1.6-1.6-2.5-2.6C3.3,9.5,3.2,9.3,3,9.2c-1.1-0.9-2.8-0.3-3,1.1c-0.1,0.7,0.2,1.3,0.7,1.8c1.9,1.9,3.3,3.4,4.8,5
			c1.3,1.3,2.5,2.6,4.1,4.2c0.2,0.2,0.3,0.4,0.4,0.6c0.6,2.2,1.1,4.4,1.6,6.7c2.7,2.1,6,3.3,9.7,3.3c0.3,0,0.5,0,0.8,0
			c-0.1-0.1-0.1-0.2-0.2-0.3c-0.8-3.4-1.7-9.3-2.5-12.6c-0.1-0.3,0-0.5,0.2-0.8c0.3-0.4,0.6-0.9,0.9-1.3c0.8-1,1.5-2.1,2.3-3.1
			c0,0,0,0,0,0c1.3-1.7,2.5-3.3,3.8-5C27.7,7.5,27.6,5.5,25.9,5.5z"/>
	</g>
	<g>
		<path fill="#FFFFFF" d="M41.8,15.2c-0.3-1.4-1.9-2-3-1.1c-0.2,0.1-0.3,0.3-0.5,0.4c-0.5,0.5-0.9,0.9-1.2,1.2
			c-1.8,1.8-2.1,2.3-4.6,4.8c-0.2,0.2-0.4,0.3-0.8,0.2c-1.4-0.4-2.8-0.7-4.2-1.1c-0.2-0.1-0.5-0.2-0.6-0.4c-1.8-2.4-2.7-3.7-4.1-5.5
			c-0.4-0.6-0.9-1.3-1.5-2.1c-0.3-0.4-0.6-0.7-0.9-0.9c-0.2-0.1-0.3-0.3-0.5-0.3h-0.8c-1.6,0-1.8,2-0.9,3.3c0,0.1,0.1,0.1,0.1,0.2
			c0.9,1.2,1.6,2.1,2.2,3c1,1.3,1.8,2.5,3.3,4.5c0.2,0.3,0.2,0.5,0.2,0.8c-0.8,3.4-0.7,6.1-1.5,9.4c0,0.1-0.1,0.2-0.1,0.3
			c4.3-0.3,8.1-2.3,10.8-5.3c0.1-0.4,0.2-0.8,0.3-1.4c0.1-0.2,0.2-0.5,0.4-0.6c0.8-0.8,1.4-1.4,1.9-1.9c1.9-1.9,2.7-2.8,5.4-5.6
			C41.6,16.5,41.9,15.9,41.8,15.2z"/>
	</g>
	<g>
		<path fill="#FFFFFF" d="M21.3,32.2c-8.9,0-16.1-7.2-16.1-16.1C5.2,7.2,12.4,0,21.3,0s16.1,7.2,16.1,16.1
			C37.4,25,30.2,32.2,21.3,32.2z M21.3,0.6c-8.6,0-15.5,7-15.5,15.5s7,15.5,15.5,15.5s15.5-7,15.5-15.5S29.9,0.6,21.3,0.6z"/>
	</g>
</g>
</svg>
