<?xml version="1.0" encoding="utf-8"?>
<!-- Generator: Adobe Illustrator 18.0.0, SVG Export Plug-In . SVG Version: 6.00 Build 0)  -->
<!DOCTYPE svg PUBLIC "-//W3C//DTD SVG 1.1//EN" "http://www.w3.org/Graphics/SVG/1.1/DTD/svg11.dtd">
<svg version="1.1" id="Layer_1" xmlns="http://www.w3.org/2000/svg" xmlns:xlink="http://www.w3.org/1999/xlink" x="0px" y="0px"
	 viewBox="352.2 125.1 607.8 434.9" enable-background="new 352.2 125.1 607.8 434.9" xml:space="preserve">
<g>
	<defs>
		<rect id="SVGID_1_" x="352.2" y="125.1" width="607.8" height="434.9"/>
	</defs>
	<clipPath id="SVGID_2_">
		<use xlink:href="#SVGID_1_"  overflow="visible"/>
	</clipPath>
	<g clip-path="url(#SVGID_2_)">
		<path fill="#2773AA" stroke="#2773AA" stroke-width="1.51" d="M574.2,591.2l242.3,12.3L687.3,588L574.2,591.2z"/>
		<path fill="#1C69A5" stroke="#1C69A5" stroke-width="1.51" d="M408.7,591.6l407.8,11.9l-242.3-12.3L408.7,591.6z"/>
		<path fill="#1060A1" stroke="#1060A1" stroke-width="1.51" d="M408.7,591.6l165.5-0.4l-96.4-8.3L408.7,591.6z"/>
		<path fill="#1565A3" stroke="#1565A3" stroke-width="1.51" d="M308.1,453.3l28,97.5l31.6-61.9L308.1,453.3z"/>
		<path fill="#869EB8" stroke="#869EB8" stroke-width="1.51" d="M308.1,77l59.5-9.1l0.6-58.7L308.1,77z"/>
		<path fill="#99BAD1" stroke="#99BAD1" stroke-width="1.51" d="M304-13.4l306,8.3l164.3-7.1L304-13.4z"/>
		<path fill="#90A7C5" stroke="#90A7C5" stroke-width="1.51" d="M304-13.4l64.3,22.6l153.6-3.6L304-13.4z"/>
		<path fill="#94B1CD" stroke="#94B1CD" stroke-width="1.51" d="M304-13.4l217.9,19L610-5.1L304-13.4z"/>
		<path fill="#899DB9" stroke="#899DB9" stroke-width="1.51" d="M304-13.4l4.1,90.4l60.1-67.8L304-13.4z"/>
		<path fill="#0C5A9D" stroke="#0C5A9D" stroke-width="1.51" d="M290.3,589.7l45.8-38.9l-28-97.5L290.3,589.7z"/>
		<path fill="#7B98AC" stroke="#7B98AC" stroke-width="1.51" d="M287.9,96.4l47,95.6l41.7-68.2L287.9,96.4z"/>
		<path fill="#8398B2" stroke="#8398B2" stroke-width="1.51" d="M287.9,96.4L308.1,77l-4.2-90.4L287.9,96.4z"/>
		<path fill="#7291A4" stroke="#7291A4" stroke-width="1.51" d="M284.3,236.4l50.6-44.4l-47-95.6L284.3,236.4z"/>
		<path fill="#4486AF" stroke="#4486AF" stroke-width="1.51" d="M281.3,273.2l51.8,97.9l66.1-23.4L281.3,273.2z"/>
		<path fill="#4C8DB0" stroke="#4C8DB0" stroke-width="1.51" d="M281.3,273.2l117.9,74.5l22-40.4L281.3,273.2z"/>
		<path fill="#5F8EA6" stroke="#5F8EA6" stroke-width="1.51" d="M281.3,273.2L400.4,234l-116.1,2.4L281.3,273.2z"/>
		<path fill="#5991AD" stroke="#5991AD" stroke-width="1.51" d="M281.3,273.2l139.9,34.1L400.4,234L281.3,273.2z"/>
		<path fill="#327CAE" stroke="#327CAE" stroke-width="1.51" d="M281.3,273.2l26.8,180l17.3-48.4L281.3,273.2z"/>
		<path fill="#3E80AD" stroke="#3E80AD" stroke-width="1.51" d="M281.3,273.2l44.1,131.6l7.7-33.7L281.3,273.2z"/>
		<path fill="#236CA5" stroke="#236CA5" stroke-width="1.51" d="M281.3,273.2l8.9,316.4l17.9-136.3L281.3,273.2z"/>
		<path fill="#6B8DA0" stroke="#6B8DA0" stroke-width="1.51" d="M281.3,273.2l3-36.9l3.6-140L281.3,273.2z"/>
		<path fill="#6892A6" stroke="#6892A6" stroke-width="1.51" d="M284.3,236.4l116.1-2.4l-65.5-42L284.3,236.4z"/>
		<path fill="#8099AF" stroke="#8099AF" stroke-width="1.51" d="M287.9,96.4l88.7,27.4L308.1,77L287.9,96.4z"/>
		<path fill="#0A5396" stroke="#0A5396" stroke-width="1.51" d="M290.3,589.7l118.5,2l-72.7-40.9L290.3,589.7z"/>
		<path fill="#2977AE" stroke="#2977AE" stroke-width="1.51" d="M308.1,453.3l107.7-45.2l-90.5-3.2L308.1,453.3z"/>
		<path fill="#829DB3" stroke="#829DB3" stroke-width="1.51" d="M308.1,77l68.5,46.8l-8.9-55.9L308.1,77z"/>
		<path fill="#769AAD" stroke="#769AAD" stroke-width="1.51" d="M334.9,192l60.1-2l-18.5-66.2L334.9,192z"/>
		<path fill="#2172AC" stroke="#2172AC" stroke-width="1.51" d="M308.1,453.3l59.5,35.7l48.2-80.9L308.1,453.3z"/>
		<path fill="#0F64A6" stroke="#0F64A6" stroke-width="1.51" d="M336.1,550.8l95.2-21.8l-63.7-40L336.1,550.8z"/>
		<path fill="#6E98AA" stroke="#6E98AA" stroke-width="1.51" d="M334.9,192l65.5,42l-5.4-44L334.9,192z"/>
		<path fill="#307EB2" stroke="#307EB2" stroke-width="1.51" d="M325.4,404.9l90.5,3.2l-82.8-36.9L325.4,404.9z"/>
		<path fill="#3485B8" stroke="#3485B8" stroke-width="1.51" d="M333.1,371.2l82.7,36.9l-16.7-60.3L333.1,371.2z"/>
		<path fill="#095DA0" stroke="#095DA0" stroke-width="1.51" d="M336.1,550.8l72.6,40.8l22.6-62.6L336.1,550.8z"/>
		<path fill="#7BA4B7" stroke="#7BA4B7" stroke-width="1.51" d="M395,190l81-23l-10.1-35.3L395,190z"/>
		<path fill="#7CA1B4" stroke="#7CA1B4" stroke-width="1.51" d="M376.6,123.8l18.5,66.2l70.8-58.3L376.6,123.8z"/>
		<path fill="#8EADC8" stroke="#8EADC8" stroke-width="1.51" d="M368.2,9.2l138.1,63l15.5-66.6L368.2,9.2z"/>
		<path fill="#83A3B8" stroke="#83A3B8" stroke-width="1.51" d="M367.6,67.9l8.9,55.9l89.3,7.9L367.6,67.9z"/>
		<path fill="#87A9BF" stroke="#87A9BF" stroke-width="1.51" d="M367.6,67.9l98.2,63.8l40.5-59.5L367.6,67.9z"/>
		<path fill="#8AA6C1" stroke="#8AA6C1" stroke-width="1.51" d="M367.6,67.9l138.7,4.4l-138.1-63L367.6,67.9z"/>
		<path fill="#1E78B3" stroke="#1E78B3" stroke-width="1.51" d="M367.6,488.9l136.9-13.5L415.8,408L367.6,488.9z"/>
		<path fill="#1570B0" stroke="#1570B0" stroke-width="1.51" d="M367.6,488.9l63.7,40l73.2-53.5L367.6,488.9z"/>
		<path fill="#599EBA" stroke="#599EBA" stroke-width="1.51" d="M421.2,307.3l83.3,7.1l15.5-95.2L421.2,307.3z"/>
		<path fill="#0960A4" stroke="#0960A4" stroke-width="1.51" d="M408.7,591.6l69.1-8.7L431.3,529L408.7,591.6z"/>
		<path fill="#629DB5" stroke="#629DB5" stroke-width="1.51" d="M400.4,234l20.8,73.4l98.8-88L400.4,234z"/>
		<path fill="#71A3B3" stroke="#71A3B3" stroke-width="1.51" d="M400.4,234l119.7-14.7L476,167L400.4,234z"/>
		<path fill="#338ABE" stroke="#338ABE" stroke-width="1.51" d="M399.2,347.8l16.7,60.3l73.8-16.7L399.2,347.8z"/>
		<path fill="#729FB1" stroke="#729FB1" stroke-width="1.51" d="M395,190l5.4,44l75.6-67L395,190z"/>
		<path fill="#4592BC" stroke="#4592BC" stroke-width="1.51" d="M399.2,347.8l109.5,5.6l-87.5-46L399.2,347.8z"/>
		<path fill="#3B90C0" stroke="#3B90C0" stroke-width="1.51" d="M399.2,347.8l90.5,43.6l19-38.1L399.2,347.8z"/>
		<path fill="#4A97BD" stroke="#4A97BD" stroke-width="1.51" d="M421.2,307.3l87.5,46l-4.2-38.9L421.2,307.3z"/>
		<path fill="#2A84BB" stroke="#2A84BB" stroke-width="1.51" d="M415.9,408.1l88.7,67.4l-14.9-84.1L415.9,408.1z"/>
		<path fill="#0D67AA" stroke="#0D67AA" stroke-width="1.51" d="M431.3,529l46.4,53.9l25.6-40L431.3,529z"/>
		<path fill="#64A5B9" stroke="#64A5B9" stroke-width="1.51" d="M504.6,314.5l51.8-78.5l-36.3-16.7L504.6,314.5z"/>
		<path fill="#1570B1" stroke="#1570B1" stroke-width="1.51" d="M431.3,529l72,13.9l1.2-67.4L431.3,529z"/>
		<path fill="#5CA4BD" stroke="#5CA4BD" stroke-width="1.51" d="M504.6,314.5l66.1-24.6L556.4,236L504.6,314.5z"/>
		<path fill="#2885BB" stroke="#2885BB" stroke-width="1.51" d="M489.7,391.4l14.9,84.1l57.7-11.9L489.7,391.4z"/>
		<path fill="#78AAB8" stroke="#78AAB8" stroke-width="1.51" d="M476,167l44.1,52.3l38.7-40.8L476,167z"/>
		<path fill="#88B0C1" stroke="#88B0C1" stroke-width="1.51" d="M465.9,131.7l104.8-30.1l-64.3-29.3L465.9,131.7z"/>
		<path fill="#7EAABA" stroke="#7EAABA" stroke-width="1.51" d="M465.9,131.7L476,167l82.7,11.5L465.9,131.7z"/>
		<path fill="#84B0BE" stroke="#84B0BE" stroke-width="1.51" d="M465.9,131.7l92.9,46.8l11.9-76.9L465.9,131.7z"/>
		<path fill="#1A75B3" stroke="#1A75B3" stroke-width="1.51" d="M503.4,542.9l73.2-11.5l-72-55.9L503.4,542.9z"/>
		<path fill="#318EC0" stroke="#318EC0" stroke-width="1.51" d="M489.7,391.4l72.6,72.2l38.1-64.6L489.7,391.4z"/>
		<path fill="#1467A7" stroke="#1467A7" stroke-width="1.51" d="M477.8,582.9l96.4,8.3l-70.8-48.4L477.8,582.9z"/>
		<path fill="#91B5CA" stroke="#91B5CA" stroke-width="1.51" d="M506.3,72.2l85.8-23.4L521.8,5.6L506.3,72.2z"/>
		<path fill="#3D95C2" stroke="#3D95C2" stroke-width="1.51" d="M489.7,391.4l58.3-37.7l-39.3-0.4L489.7,391.4z"/>
		<path fill="#3996C4" stroke="#3996C4" stroke-width="1.51" d="M489.7,391.4l110.7,7.5L548,353.7L489.7,391.4z"/>
		<path fill="#479AC1" stroke="#479AC1" stroke-width="1.51" d="M504.6,314.5l4.2,38.9l39.3,0.4L504.6,314.5z"/>
		<path fill="#217DB6" stroke="#217DB6" stroke-width="1.51" d="M504.6,475.5l72,55.9l-14.3-67.8L504.6,475.5z"/>
		<path fill="#176EAD" stroke="#176EAD" stroke-width="1.51" d="M503.4,542.9l70.8,48.4l2.4-59.9L503.4,542.9z"/>
		<path fill="#4F9FC0" stroke="#4F9FC0" stroke-width="1.51" d="M504.6,314.5l43.5,39.3l22.6-63.8L504.6,314.5z"/>
		<path fill="#8EB5C6" stroke="#8EB5C6" stroke-width="1.51" d="M506.3,72.2l64.3,29.3l21.5-52.7L506.3,72.2z"/>
		<path fill="#96BACF" stroke="#96BACF" stroke-width="1.51" d="M521.8,5.6l70.3,43.2L610-5.1L521.8,5.6z"/>
		<path fill="#73ABB7" stroke="#73ABB7" stroke-width="1.51" d="M520,219.3l36.3,16.7l2.4-57.5L520,219.3z"/>
		<path fill="#2582BA" stroke="#2582BA" stroke-width="1.51" d="M562.3,463.6l14.3,67.8l82.7-52.3L562.3,463.6z"/>
		<path fill="#88B7C2" stroke="#88B7C2" stroke-width="1.51" d="M558.7,178.5l111.4-61.1l-99.4-15.9L558.7,178.5z"/>
		<path fill="#74AFB9" stroke="#74AFB9" stroke-width="1.51" d="M556.4,236l83.9-9.9l-81.6-47.6L556.4,236z"/>
		<path fill="#69ACBC" stroke="#69ACBC" stroke-width="1.51" d="M556.4,236l14.3,53.9l69.6-63.8L556.4,236z"/>
		<path fill="#4CA3C4" stroke="#4CA3C4" stroke-width="1.51" d="M548,353.7l141.7,11.1l-119.1-74.9L548,353.7z"/>
		<path fill="#3F9FC8" stroke="#3F9FC8" stroke-width="1.51" d="M548,353.7l52.4,45.2l89.3-34.1L548,353.7z"/>
		<path fill="#57ACC4" stroke="#57ACC4" stroke-width="1.51" d="M570.6,289.9l119.1,74.9l6.5-84.1L570.6,289.9z"/>
		<path fill="#2D8DBE" stroke="#2D8DBE" stroke-width="1.51" d="M562.3,463.6l97,15.5L600.4,399L562.3,463.6z"/>
		<path fill="#84BAC0" stroke="#84BAC0" stroke-width="1.51" d="M558.7,178.5l131,7.5l-19.6-68.6L558.7,178.5z"/>
		<path fill="#7BB6BC" stroke="#7BB6BC" stroke-width="1.51" d="M558.7,178.5l81.6,47.6l49.4-40L558.7,178.5z"/>
		<path fill="#1D71AC" stroke="#1D71AC" stroke-width="1.51" d="M574.2,591.2l113.1-3.2l-110.7-56.7L574.2,591.2z"/>
		<path fill="#9FC9D7" stroke="#9FC9D7" stroke-width="1.51" d="M609.9-5.1l79.2,17.8l85.1-25L609.9-5.1z"/>
		<path fill="#237BB4" stroke="#237BB4" stroke-width="1.51" d="M576.6,531.4l110.7,56.7l7.7-57.9L576.6,531.4z"/>
		<path fill="#90BCC9" stroke="#90BCC9" stroke-width="1.51" d="M570.6,101.6l108.3-29.7l-86.9-23L570.6,101.6z"/>
		<path fill="#8FBEC8" stroke="#8FBEC8" stroke-width="1.51" d="M570.6,101.6l99.4,15.9l8.9-45.6L570.6,101.6z"/>
		<path fill="#66B0C0" stroke="#66B0C0" stroke-width="1.51" d="M570.6,289.9l125.6-9.1l-56-54.7L570.6,289.9z"/>
		<path fill="#3696C4" stroke="#3696C4" stroke-width="1.51" d="M600.4,398.9l58.9,80.1l24.4-78.9L600.4,398.9z"/>
		<path fill="#2682B9" stroke="#2682B9" stroke-width="1.51" d="M576.6,531.4l118.5-1.2L659.3,479L576.6,531.4z"/>
		<path fill="#3FA0C9" stroke="#3FA0C9" stroke-width="1.51" d="M600.4,398.9l83.3,1.2l6-35.3L600.4,398.9z"/>
		<path fill="#98C0D2" stroke="#98C0D2" stroke-width="1.51" d="M592.1,48.8l97-36.1L609.9-5.1L592.1,48.8z"/>
		<path fill="#96C2D0" stroke="#96C2D0" stroke-width="1.51" d="M592.1,48.8l86.9,23l10.1-59.1L592.1,48.8z"/>
		<path fill="#2D79AE" stroke="#2D79AE" stroke-width="1.51" d="M687.3,588.1l129.2,15.5L730.8,581L687.3,588.1z"/>
		<path fill="#3899C5" stroke="#3899C5" stroke-width="1.51" d="M659.3,479l85.7-48l-61.3-30.9L659.3,479z"/>
		<path fill="#7ABABE" stroke="#7ABABE" stroke-width="1.51" d="M640.3,226.1l83.3,5.2L689.7,186L640.3,226.1z"/>
		<path fill="#70B7C1" stroke="#70B7C1" stroke-width="1.51" d="M640.3,226.1l56,54.7l27.4-49.6L640.3,226.1z"/>
		<path fill="#56B0CA" stroke="#56B0CA" stroke-width="1.51" d="M689.7,364.8l71.4-12.3l-64.9-71.8L689.7,364.8z"/>
		<path fill="#297BB2" stroke="#297BB2" stroke-width="1.51" d="M687.3,588.1l43.5-7.1l-35.7-50.8L687.3,588.1z"/>
		<path fill="#99C8D2" stroke="#99C8D2" stroke-width="1.51" d="M679,71.8l64.9-15.1l-54.8-44L679,71.8z"/>
		<path fill="#8AC2C5" stroke="#8AC2C5" stroke-width="1.51" d="M670.1,117.4l19.6,68.6l85.1-19.4L670.1,117.4z"/>
		<path fill="#308CBF" stroke="#308CBF" stroke-width="1.51" d="M659.3,479l35.7,51.1l80.4-47.6L659.3,479z"/>
		<path fill="#3696C4" stroke="#3696C4" stroke-width="1.51" d="M659.3,479l116.1,3.6l-30.3-51.5L659.3,479z"/>
		<path fill="#60B7C9" stroke="#60B7C9" stroke-width="1.51" d="M696.2,280.8l64.9,71.8l-8.3-75.3L696.2,280.8z"/>
		<path fill="#93C7CA" stroke="#93C7CA" stroke-width="1.51" d="M670.1,117.4l104.8,49.2l-6.5-72.2L670.1,117.4z"/>
		<path fill="#94C6CC" stroke="#94C6CC" stroke-width="1.51" d="M670.1,117.4l98.2-23L679,71.8L670.1,117.4z"/>
		<path fill="#98C9D0" stroke="#98C9D0" stroke-width="1.51" d="M679,71.8l89.3,22.6l-24.4-37.7L679,71.8z"/>
		<path fill="#6DBAC4" stroke="#6DBAC4" stroke-width="1.51" d="M696.2,280.8l56.6-3.6l-29.2-46L696.2,280.8z"/>
		<path fill="#338EC0" stroke="#338EC0" stroke-width="1.51" d="M695.1,530.2l90.5-7.1l-10.1-40.4L695.1,530.2z"/>
		<path fill="#47A9CD" stroke="#47A9CD" stroke-width="1.51" d="M683.7,400.1l77.4-47.6l-71.4,12.3L683.7,400.1z"/>
		<path fill="#44A6CD" stroke="#44A6CD" stroke-width="1.51" d="M683.7,400.1L745,431l16.1-78.5L683.7,400.1z"/>
		<path fill="#82C1C2" stroke="#82C1C2" stroke-width="1.51" d="M689.7,186l33.9,45.2l51.2-64.6L689.7,186z"/>
		<path fill="#9FCDD7" stroke="#9FCDD7" stroke-width="1.51" d="M689.1,12.7l54.8,44l30.4-69L689.1,12.7z"/>
		<path fill="#2E84BA" stroke="#2E84BA" stroke-width="1.51" d="M695.1,530.2l35.7,50.8l54.8-57.9L695.1,530.2z"/>
		<path fill="#60BACC" stroke="#60BACC" stroke-width="1.51" d="M752.8,277.2l8.3,75.3l57.7-42.4L752.8,277.2z"/>
		<path fill="#4CB0D1" stroke="#4CB0D1" stroke-width="1.51" d="M745.1,431.1l80.4-79.7l-64.3,1.2L745.1,431.1z"/>
		<path fill="#A1D1D8" stroke="#A1D1D8" stroke-width="1.51" d="M743.9,56.7l76.2-1.6l-45.8-67.4L743.9,56.7z"/>
		<path fill="#87C7C5" stroke="#87C7C5" stroke-width="1.51" d="M723.6,231.2l113.7-57.9l-62.5-6.7L723.6,231.2z"/>
		<path fill="#81C7C5" stroke="#81C7C5" stroke-width="1.51" d="M723.6,231.2l132.7,25.4l-19-83.3L723.6,231.2z"/>
		<path fill="#74C1C7" stroke="#74C1C7" stroke-width="1.51" d="M723.6,231.2l29.2,46l103.6-20.6L723.6,231.2z"/>
		<path fill="#4BADCF" stroke="#4BADCF" stroke-width="1.51" d="M745.1,431.1l123.2-3.2l-42.9-76.5L745.1,431.1z"/>
		<path fill="#3182B6" stroke="#3182B6" stroke-width="1.51" d="M730.8,580.9l85.7,22.6l-31-80.5L730.8,580.9z"/>
		<path fill="#97CFCE" stroke="#97CFCE" stroke-width="1.51" d="M768.3,94.4l6.5,72.2l88.7-56.3L768.3,94.4z"/>
		<path fill="#40A1CA" stroke="#40A1CA" stroke-width="1.51" d="M745.1,431.1l30.4,51.5l92.9-54.7L745.1,431.1z"/>
		<path fill="#9CCFD3" stroke="#9CCFD3" stroke-width="1.51" d="M743.9,56.7l24.4,37.7l51.8-39.2L743.9,56.7z"/>
		<path fill="#388ABC" stroke="#388ABC" stroke-width="1.51" d="M785.5,523l31,80.5l38.1-72.2L785.5,523z"/>
		<path fill="#A6D6DC" stroke="#A6D6DC" stroke-width="1.51" d="M774.2-12.2l45.9,67.4L843.3-9L774.2-12.2z"/>
		<path fill="#5BB8D0" stroke="#5BB8D0" stroke-width="1.51" d="M761.1,352.5l64.3-1.2l-6.5-41.2L761.1,352.5z"/>
		<path fill="#6DC1CA" stroke="#6DC1CA" stroke-width="1.51" d="M752.8,277.2l66.1,32.9l37.5-53.5L752.8,277.2z"/>
		<path fill="#429FC7" stroke="#429FC7" stroke-width="1.51" d="M775.4,482.6l64.9,9.5l28-64.2L775.4,482.6z"/>
		<path fill="#94CFCA" stroke="#94CFCA" stroke-width="1.51" d="M774.8,166.6l62.5,6.7l26.2-63L774.8,166.6z"/>
		<path fill="#3A95C4" stroke="#3A95C4" stroke-width="1.51" d="M775.4,482.6l10.1,40.4l54.8-30.9L775.4,482.6z"/>
		<path fill="#9DD2D2" stroke="#9DD2D2" stroke-width="1.51" d="M768.3,94.4l95.2,15.9l-43.4-55.1L768.3,94.4z"/>
		<path fill="#3D94C1" stroke="#3D94C1" stroke-width="1.51" d="M785.5,523l69.1,8.3L840.3,492L785.5,523z"/>
		<path fill="#87CCC2" stroke="#87CCC2" stroke-width="1.51" d="M837.3,173.3l19,83.3l99.4-13.1L837.3,173.3z"/>
		<path fill="#56B2CD" stroke="#56B2CD" stroke-width="1.51" d="M825.4,351.4l42.9,76.5l67.8-13.9L825.4,351.4z"/>
		<path fill="#5DB9CE" stroke="#5DB9CE" stroke-width="1.51" d="M825.4,351.4L936.1,414l22-40.4L825.4,351.4z"/>
		<path fill="#A8D8D7" stroke="#A8D8D7" stroke-width="1.51" d="M820.1,55.2L914.8,37L843.4-9L820.1,55.2z"/>
		<path fill="#A4D6D2" stroke="#A4D6D2" stroke-width="1.51" d="M820.1,55.2l43.5,55.1l51.2-73.4L820.1,55.2z"/>
		<path fill="#66BFCC" stroke="#66BFCC" stroke-width="1.51" d="M818.9,310.1l6.5,41.2l87.5-54.7L818.9,310.1z"/>
		<path fill="#71C4C9" stroke="#71C4C9" stroke-width="1.51" d="M818.9,310.1l94.1-13.5l-56.6-40L818.9,310.1z"/>
		<path fill="#3F87B4" stroke="#3F87B4" stroke-width="1.51" d="M816.5,603.5l95.8-19.4l-57.7-52.7L816.5,603.5z"/>
		<path fill="#92D1C1" stroke="#92D1C1" stroke-width="1.51" d="M837.3,173.3l118.5,70.2l-8.9-77.7L837.3,173.3z"/>
		<path fill="#4590B9" stroke="#4590B9" stroke-width="1.51" d="M854.6,531.4l57.7,52.7l-3.6-44.8L854.6,531.4z"/>
		<path fill="#9CD4C9" stroke="#9CD4C9" stroke-width="1.51" d="M837.3,173.3l75-61.5l-48.8-1.6L837.3,173.3z"/>
		<path fill="#67BFCC" stroke="#67BFCC" stroke-width="1.51" d="M825.4,351.4l132.7,22.2l-45.2-76.9L825.4,351.4z"/>
		<path fill="#A4D7CE" stroke="#A4D7CE" stroke-width="1.51" d="M863.5,110.3l48.8,1.6l2.4-74.9L863.5,110.3z"/>
		<path fill="#4CA3C4" stroke="#4CA3C4" stroke-width="1.51" d="M840.3,492.1l111.9-14.3l-83.9-50L840.3,492.1z"/>
		<path fill="#4495BF" stroke="#4495BF" stroke-width="1.51" d="M840.3,492.1l14.3,39.3l54.2,7.9L840.3,492.1z"/>
		<path fill="#9AD4C6" stroke="#9AD4C6" stroke-width="1.51" d="M837.3,173.3l109.5-7.5l-34.5-53.9L837.3,173.3z"/>
		<path fill="#AFDCD8" stroke="#AFDCD8" stroke-width="1.51" d="M843.3-9.1l71.4,46l33.9-42L843.3-9.1z"/>
		<path fill="#4B9CC0" stroke="#4B9CC0" stroke-width="1.51" d="M840.3,492.1l68.5,47.2l43.5-61.5L840.3,492.1z"/>
		<path fill="#7DCAC5" stroke="#7DCAC5" stroke-width="1.51" d="M856.4,256.6l56.6,40l42.9-53.1L856.4,256.6z"/>
		<path fill="#55ABC6" stroke="#55ABC6" stroke-width="1.51" d="M868.3,427.9l83.9,50L936.1,414L868.3,427.9z"/>
	</g>
</g>
</svg>
