<?xml version="1.0" encoding="utf-8"?>
<!-- Generator: Adobe Illustrator 18.0.0, SVG Export Plug-In . SVG Version: 6.00 Build 0)  -->
<!DOCTYPE svg PUBLIC "-//W3C//DTD SVG 1.1//EN" "http://www.w3.org/Graphics/SVG/1.1/DTD/svg11.dtd">
<svg version="1.1" id="Layer_1" xmlns="http://www.w3.org/2000/svg" xmlns:xlink="http://www.w3.org/1999/xlink" x="0px" y="0px"
	 viewBox="0 0 188 21.8" enable-background="new 0 0 188 21.8" xml:space="preserve">
<g>
	<g>
		<line fill="none" stroke="#AFC01D" stroke-width="2" stroke-miterlimit="10" x1="0" y1="11.9" x2="62" y2="11.9"/>
		<line fill="none" stroke="#AFC01D" stroke-width="2" stroke-miterlimit="10" x1="126" y1="11.9" x2="188" y2="11.9"/>
	</g>
	<g>
		<path fill="#AFC01D" d="M112.4,15.4c-0.1,0.8-0.3,1.5-0.6,2.3c-1.2,2.6-4,4.3-6.8,4.1c-3.1-0.2-5.5-2-6.5-4.9
			c-0.1-0.2-0.1-0.4-0.2-0.6c-1,0.2-2,0.3-3,0.5c-0.7,0.2-1.1-0.1-1.4-0.6c-2.1-3.1-4.3-6.2-6.4-9.3c-0.1-0.2-0.2-0.3-0.4-0.6
			c-0.3,0.7-0.6,1.3-0.9,1.9c1.7,1,2.9,2.5,3.4,4.4c1.1,3.9-1.2,7.9-5.3,9c-4.8,1.2-9.6-3.3-8.7-8.1c0.4-2.1,1.7-4.1,3.5-5.2
			c1.7-1,3.7-1.1,5.6-0.6c0.6-1.5,1.3-3,1.9-4.6c-0.7,0-1.4,0-2,0c-0.6,0-1-0.2-1-0.8c0-0.6,0.4-0.7,1-0.7c0.4,0,0.8,0,1.2,0
			c0.9,0.1,1.7,0.1,1.9-1.1c0.1-0.2,0.5-0.5,0.8-0.5c0.9-0.1,1.8,0,2.7,0c0.5,0,1,0.2,0.9,0.8c0,0.6-0.4,0.8-1,0.8
			c-0.1,0-0.1,0-0.2,0c-2.5,0.1-2.5,0.1-3.3,2.8c0.3,0,0.5,0,0.8,0c3,0,6,0,9,0c0.6,0,0.9-0.2,1.1-0.7c0.2-0.5,0.4-1.1,0.7-1.7
			c-0.4,0-0.8,0-1.2-0.1c-0.2-0.1-0.4-0.3-0.5-0.5c-0.1-0.3,0.1-0.5,0.3-0.7c0.2-0.2,0.5-0.2,0.7-0.2c0.4,0,0.7,0,1.1,0
			c0.9,0,1.8,0,2.8,0c0.2,0,0.4,0.2,0.5,0.4c0.2,0.3,0.2,0.7-0.2,0.8c-0.2,0.1-0.6,0.2-0.9,0.2c-0.3,0-0.6,0.1-0.8,0.3
			c-0.5,0.4-0.6,1-0.9,1.5c-0.3,0.6-0.5,1.2-0.3,1.9c0.1,0.3,1.8,2.7,1.9,2.7c1.4-0.6,2.8-1,4.3-0.7
			C110.3,8.1,112.8,11.7,112.4,15.4z M84.2,9.2c-3.2-0.7-6.1,1-7,4C76.4,16,78.1,19.1,81,20c2.8,0.9,5.9-0.5,7-3.3
			c1-2.6-0.1-5.9-2.4-6.9c-0.1,0.3-0.3,0.5-0.4,0.8c-0.6,1.3-1.1,2.7-1.7,4c-0.2,0.5-0.5,0.9-1.1,0.6c-0.6-0.3-0.5-0.8-0.3-1.2
			c0.1-0.2,0.2-0.3,0.2-0.5C83,12.1,83.6,10.6,84.2,9.2z M99.9,16c0.4,2.3,2.5,4.1,4.9,4.2c2.6,0.2,4.9-1.3,5.8-3.6
			c0.9-2.4,0.1-5-2-6.6c-1.3-1-4-1.6-5.7-0.4c0.9,1.3,1.8,2.6,2.7,3.9c0.7,1,0.5,1.4-0.7,1.6C103.3,15.4,101.6,15.7,99.9,16z
			 M94.5,14.3c1.2-2.9,2.3-5.6,3.4-8.4c-3.1,0-6.1,0-9.2,0C90.6,8.8,92.5,11.5,94.5,14.3z M95.8,15.2c0.7-0.1,1.3-0.2,1.9-0.3
			c0.2,0,0.4-0.3,0.4-0.5c0.1-2.1,1-3.8,2.6-5.3c-0.5-0.7-1-1.4-1.6-2.2C98,9.7,96.9,12.3,95.8,15.2z M101.6,10.3
			c-1.2,1.1-1.9,2.4-1.9,4.2c1.5-0.3,2.9-0.5,4.3-0.8C103.1,12.6,102.4,11.5,101.6,10.3z"/>
	</g>
</g>
</svg>
