<?xml version="1.0" encoding="utf-8"?>
<!-- Generator: Adobe Illustrator 18.0.0, SVG Export Plug-In . SVG Version: 6.00 Build 0)  -->
<!DOCTYPE svg PUBLIC "-//W3C//DTD SVG 1.1//EN" "http://www.w3.org/Graphics/SVG/1.1/DTD/svg11.dtd">
<svg version="1.1" id="Layer_1" xmlns="http://www.w3.org/2000/svg" xmlns:xlink="http://www.w3.org/1999/xlink" x="0px" y="0px"
	 viewBox="0 169.2 960 222.8" enable-background="new 0 169.2 960 222.8" xml:space="preserve">
<g>
	<path fill="#FFFFFF" d="M149.1,280.3c0.6,1.8,2.5,2.5,4.3,2.5c0.6,0,1.8,0,2.5-0.6c2.5-1.2,3.1-4.3,1.8-6.7l-12.9-23.9
		c3.1-1.8,5.5-2.5,8.6-2.5c15.9,0,28.8,12.9,28.8,28.8c0,12.9-8.6,24.5-20.9,27.6v-1.8c0-1.2-0.6-2.5-1.2-3.7
		c-1.2-1.2-3.1-2.5-5.5-2.5c-1.8,0-3.7,0.6-5.5,2.5l-6.7,6.7c-1.2,1.2-2.5,3.1-2.5,5.5c0,1.8,0.6,3.7,2.5,5.5l6.7,6.7
		c1.2,1.2,3.1,2.5,5.5,2.5c1.8,0,3.7-0.6,5.5-2.5c1.2-1.2,1.2-2.5,1.2-3.7v-4.9c17.8-3.7,30.7-19.6,30.7-38
		c0-21.5-17.2-38.6-38.6-38.6c-4.3,0-8.6,1.2-12.9,3.7l-6.1-12.3H146c2.5,0,4.9-2.5,4.9-4.9c0-2.5-2.5-4.9-4.9-4.9h-20.2
		c-1.8,0-3.1,0.6-4.3,2.5c-0.6,1.2-1.2,3.1,0,4.9l11,20.2c-3.1,2.5-6.1,5.5-9.2,9.2c-7.4,8.6-12.3,17.2-12.9,17.8
		c-4.9,8-21.5,31.3-35,31.3c-15.9,0-28.8-12.9-28.8-28.8c0-10.4,5.5-19.6,14.7-25.2l0.6,2.5c0.6,1.2,1.2,2.5,2.5,3.1
		s2.5,1.2,3.7,1.2c2.5,0,4.9-1.2,6.7-3.7l4.9-8c1.2-1.8,1.2-3.7,0.6-5.5c-0.6-1.8-1.8-3.7-3.7-4.9l-8-4.9c-1.2-0.6-2.5-1.2-3.7-1.2
		c-2.5,0-4.9,1.2-6.7,3.7c-0.6,1.2-0.6,2.5-0.6,3.7l1.2,3.7c-4.3,1.8-8,4.9-11.7,8.6c-6.7,7.4-10.4,16.6-10.4,26.4
		c0,21.5,17.2,38.6,38.6,38.6c20.9,0,41.1-32.5,42.9-36.2l0,0l0,0c3.1-5.5,9.8-15.3,18.4-22.7L149.1,280.3z"/>
	<path fill="#FFFFFF" d="M112.9,231.8c0-2.5-2.5-4.9-4.9-4.9h-8.6l0,0h-8.6c-2.5,0-4.9,2.5-4.9,4.9s2.5,4.9,4.9,4.9h5.5l9.8,19
		c0.6,1.8,2.5,2.5,4.3,2.5c0.6,0,1.8,0,2.5-0.6c2.5-1.2,3.1-4.3,1.8-6.7l-7.4-14.7h0.6C110.4,236.8,112.9,234.3,112.9,231.8z"/>
	<g>
		<path fill="#FFFFFF" d="M128.8,361.9l1.8-0.6H34.4c-12.3,0-22.1-9.8-22.1-22.1V221.4c0-12.3,9.8-22.1,22.1-22.1h741v12.3
			c0,1.8,1.2,4.3,3.1,5.5c1.2,0.6,1.8,1.2,3.1,1.2c1.2,0,1.8,0,2.5-0.6l36.8-18.4c1.8-1.2,3.7-3.1,3.7-5.5s-1.2-4.3-3.7-5.5
			l-36.8-18.4c-1.8-1.2-4.3-0.6-6.1,0c-1.8,1.2-3.1,3.1-3.1,5.5v12.3H34.4C15.3,187.1,0,202.4,0,221.4v117.8
			c0,19,15.3,34.4,34.4,34.4h95.1l-0.6-0.6c-1.8-1.2-3.7-3.1-3.7-5.5S126.4,362.5,128.8,361.9z"/>
		<path fill="#FFFFFF" d="M925.6,187.1h-95.1l1.2,0.6c1.8,1.2,3.7,3.1,3.7,5.5s-1.2,4.3-3.7,5.5l-1.8,0.6h95.7
			c12.3,0,22.1,9.8,22.1,22.1v117.8c0,12.3-9.8,22.1-22.1,22.1h-741V349c0-1.8-1.2-4.3-3.1-5.5c-1.8-1.2-4.3-1.2-6.1,0l-36.8,18.4
			c-1.8,1.2-3.7,3.1-3.7,5.5c0,2.5,1.2,4.3,3.7,5.5l36.8,18.4c0.6,0.6,1.8,0.6,2.5,0.6c1.2,0,2.5-0.6,3.1-1.2
			c1.8-1.2,3.1-3.1,3.1-5.5v-12.3h741c19,0,34.4-15.3,34.4-34.4V221.4C960,202.4,944.7,187.1,925.6,187.1z"/>
	</g>
	<g>
		<path fill="#FFFFFF" d="M261.9,306.7c0,0.6,0,1.2-0.6,1.8c-0.6,0.6-1.2,0.6-1.8,0.6l0,0c-0.6,0-1.2,0-1.8-0.6
			c-0.6-0.6-0.6-1.2-0.6-1.8v-22.1h-28.8v22.1c0,0.6,0,1.2-0.6,1.8c-0.6,0.6-1.2,0.6-1.8,0.6l0,0c-0.6,0-1.2,0-1.8-0.6
			c-0.6-0.6-0.6-1.2-0.6-1.8v-40.5c0-5.5,1.8-10.4,6.1-14.1c3.7-3.7,8.6-5.5,14.1-5.5c5.5,0,10.4,1.8,14.1,5.5s6.1,8.6,6.1,14.1
			v40.5H261.9z M256.4,279.1v-12.9c0-3.7-1.2-7.4-4.3-10.4s-6.1-4.3-10.4-4.3c-3.7,0-7.4,1.2-10.4,4.3s-4.3,6.1-4.3,10.4v12.9H256.4
			z"/>
		<path fill="#FFFFFF" d="M277.3,296.3c0,2.5,0.6,4.3,2.5,5.5c1.8,1.8,3.7,2.5,5.5,2.5h12.9c0.6,0,1.2,0,1.8,0.6s0.6,1.2,0.6,1.8
			l0,0c0,0.6,0,1.2-0.6,1.8s-1.2,0.6-1.8,0.6h-12.9c-3.7,0-6.7-1.2-9.2-3.7s-3.7-5.5-3.7-9.2v-46.6c0-0.6,0-1.2,0.6-1.8
			c0.6-0.6,1.2-0.6,1.8-0.6l0,0c0.6,0,1.2,0,1.8,0.6c0.6,0.6,0.6,1.2,0.6,1.8V296.3z"/>
		<path fill="#FFFFFF" d="M305.5,256.4c0-2.5,1.2-4.9,3.1-6.7c1.8-1.8,4.3-3.1,6.7-3.1h10.4c4.9,0,8.6,1.8,11.7,4.9
			c3.1,3.1,4.9,7.4,4.9,11.7c0,4.9-2.5,9.8-7.4,13.5c5.5,4.3,8,9.2,8,14.7c0,4.9-1.8,9.2-4.9,12.3c-3.7,3.7-7.4,4.9-12.3,4.9h-10.4
			c-2.5,0-4.9-1.2-6.7-3.1c-1.8-1.8-3.1-4.3-3.1-6.7V256.4z M311,274.2h14.7c3.1,0,5.5-1.2,8-3.1c2.5-2.5,3.1-4.9,3.1-8
			c0-3.1-1.2-5.5-3.1-8c-2.5-2.5-4.9-3.1-8-3.1h-10.4c-1.2,0-2.5,0.6-3.1,1.2s-1.2,1.8-1.2,3.1V274.2z M325.7,303.6
			c3.1,0,6.1-1.2,8.6-3.7c2.5-2.5,3.7-5.5,3.7-8.6c0-3.1-1.2-6.1-3.7-8.6c-2.5-2.5-5.5-3.7-8.6-3.7H311v20.2c0,1.2,0.6,2.5,1.2,3.1
			c0.6,1.2,1.8,1.2,3.1,1.2H325.7z"/>
		<path fill="#FFFFFF" d="M356.4,275.4h23.3c0.6,0,1.2,0,1.8,0.6c0.6,0.6,0.6,1.2,0.6,1.8l0,0c0,0.6,0,1.2-0.6,1.8
			c-0.6,0.6-1.2,0.6-1.8,0.6h-23.3v15.3c0,2.5,0.6,4.3,2.5,5.5c1.8,1.8,3.7,2.5,5.5,2.5h15.3c0.6,0,1.2,0,1.8,0.6
			c0.6,0.6,0.6,1.2,0.6,1.8l0,0c0,0.6,0,1.2-0.6,1.8c-0.6,0.6-1.2,0.6-1.8,0.6h-15.3c-3.7,0-6.7-1.2-9.2-3.7s-3.7-5.5-3.7-9.2v-36.2
			c0-3.7,1.2-6.7,3.7-9.2s5.5-3.7,9.2-3.7h15.3c0.6,0,1.2,0,1.8,0.6s0.6,1.2,0.6,1.8l0,0c0,0.6,0,1.2-0.6,1.8s-1.2,0.6-1.8,0.6
			h-15.3c-2.5,0-4.3,0.6-5.5,2.5c-1.8,1.8-2.5,3.7-2.5,5.5V275.4z"/>
		<path fill="#FFFFFF" d="M423.3,298.7c0-3.7-1.2-6.7-4.3-9.8c-1.8-2.5-4.9-3.7-8.6-3.7H395v21.5c0,0.6,0,1.2-0.6,1.8
			c-0.6,0.6-1.2,0.6-1.8,0.6l0,0c-0.6,0-1.2,0-1.8-0.6c-0.6-0.6-0.6-1.2-0.6-1.8v-46c0-3.7,1.2-7.4,4.3-10.4
			c3.1-3.1,6.1-4.3,10.4-4.3h5.5c5.5,0,9.8,1.8,13.5,5.5s5.5,8,5.5,13.5c0,5.5-1.8,9.8-5.5,13.5c-0.6,0.6-1.8,1.8-3.7,3.1
			c1.8,1.2,3.1,2.5,3.7,3.1c3.7,3.7,5.5,8,5.5,13.5v8c0,0.6,0,1.2-0.6,1.8c-0.6,0.6-1.2,0.6-1.8,0.6l0,0c-0.6,0-1.2,0-1.8-0.6
			c-0.6-0.6-0.6-1.2-0.6-1.8v-7.4H423.3z M409.8,279.7c3.7,0,6.7-1.2,9.8-4.3c2.5-2.5,4.3-6.1,4.3-9.8s-1.2-6.7-4.3-9.8
			c-2.5-2.5-6.1-4.3-9.8-4.3h-4.9c-3.1,0-4.9,0.6-6.7,2.5c-1.2,1.2-2.5,3.1-2.5,4.9c0,0.6,0,1.2,0,1.8v18.4h14.1V279.7z"/>
		<path fill="#FFFFFF" d="M470.5,249.6c0,0.6,0,1.2-0.6,1.8c-0.6,0.6-1.2,0.6-1.8,0.6h-13.5v54.6c0,0.6,0,1.2-0.6,1.8
			c-0.6,0.6-1.2,0.6-1.8,0.6l0,0c-0.6,0-1.2,0-1.8-0.6c-0.6-0.6-0.6-1.2-0.6-1.8v-54.6h-14.1c-0.6,0-1.2,0-1.8-0.6
			c-0.6-0.6-0.6-1.2-0.6-1.8l0,0c0-0.6,0-1.2,0.6-1.8c0.6-0.6,1.2-0.6,1.8-0.6h31.9c0.6,0,1.2,0,1.8,0.6
			C469.9,247.8,470.5,248.4,470.5,249.6L470.5,249.6z"/>
		<path fill="#FFFFFF" d="M516.5,306.7c0,0.6,0,1.2-0.6,1.8c-0.6,0.6-1.2,0.6-1.8,0.6l0,0c-0.6,0-1.2,0-1.8-0.6
			c-0.6-0.6-0.6-1.2-0.6-1.8v-22.1h-28.8v22.1c0,0.6,0,1.2-0.6,1.8c-0.6,0.6-1.2,0.6-1.8,0.6l0,0c-0.6,0-1.2,0-1.8-0.6
			c-0.6-0.6-0.6-1.2-0.6-1.8v-40.5c0-5.5,1.8-10.4,6.1-14.1c3.7-3.7,8.6-5.5,14.1-5.5s10.4,1.8,14.1,5.5c3.7,3.7,6.1,8.6,6.1,14.1
			v40.5H516.5z M511,279.1v-12.9c0-3.7-1.2-7.4-4.3-10.4c-3.1-3.1-6.1-4.3-10.4-4.3c-3.7,0-7.4,1.2-10.4,4.3
			c-3.1,3.1-4.3,6.1-4.3,10.4v12.9H511z"/>
		<path fill="#FFFFFF" d="M547.8,256.4c0-2.5,1.2-4.9,3.1-6.7s4.3-3.1,6.7-3.1H568c4.9,0,8.6,1.8,11.7,4.9c3.1,3.1,4.9,7.4,4.9,11.7
			c0,4.9-2.5,9.8-7.4,13.5c5.5,4.3,8,9.2,8,14.7c0,4.9-1.8,9.2-4.9,12.3c-3.7,3.7-7.4,4.9-12.3,4.9h-10.4c-2.5,0-4.9-1.2-6.7-3.1
			c-1.8-1.8-3.1-4.3-3.1-6.7L547.8,256.4L547.8,256.4z M553.3,274.2H568c3.1,0,5.5-1.2,8-3.1c2.5-2.5,3.1-4.9,3.1-8
			c0-3.1-1.2-5.5-3.1-8c-2.5-2.5-4.9-3.1-8-3.1h-10.4c-1.2,0-2.5,0.6-3.1,1.2c-0.6,0.6-1.2,1.8-1.2,3.1L553.3,274.2L553.3,274.2z
			 M567.4,303.6c3.1,0,6.1-1.2,8.6-3.7s3.7-5.5,3.7-8.6c0-3.1-1.2-6.1-3.7-8.6s-5.5-3.7-8.6-3.7h-14.7v20.2c0,1.2,0.6,2.5,1.2,3.1
			c0.6,0.6,1.8,1.2,3.1,1.2H567.4z"/>
		<path fill="#FFFFFF" d="M596.9,246.6c0.6,0,1.2,0,1.8,0.6c0.6,0.6,0.6,1.2,0.6,1.8v57.7c0,0.6,0,1.2-0.6,1.8
			c-0.6,0.6-1.2,0.6-1.8,0.6l0,0c-0.6,0-1.2,0-1.8-0.6c-0.6-0.6-0.6-1.2-0.6-1.8V249c0-0.6,0-1.2,0.6-1.8S596.2,246.6,596.9,246.6
			L596.9,246.6z"/>
		<path fill="#FFFFFF" d="M613.4,246.6c0.6,0,1.2,0,1.8,0.6c0.6,0.6,0.6,1.2,0.6,1.8v23.9h7.4c4.9,0,8.6-1.8,12.3-4.9
			c3.1-3.1,4.9-7.4,4.9-12.3V249c0-0.6,0-1.2,0.6-1.8c0.6-0.6,1.2-0.6,1.8-0.6l0,0c0.6,0,1.2,0,1.8,0.6c0.6,0.6,0.6,1.2,0.6,1.8v6.7
			c0,7.4-3.7,14.1-10.4,19c4.3,2.5,7.4,5.5,9.8,9.2c1.8,3.7,3.1,7.4,3.1,11v11c0,0.6,0,1.2-0.6,1.8c-0.6,0.6-1.2,0.6-1.8,0.6l0,0
			c-0.6,0-1.2,0-1.8-0.6c-0.6-0.6-0.6-1.2-0.6-1.8v-11c0-4.9-1.8-8.6-4.9-12.3c-3.1-3.1-7.4-4.9-12.3-4.9h-9.2v28.2
			c0,0.6,0,1.2-0.6,1.8s-1.2,0.6-1.8,0.6l0,0c-0.6,0-1.2,0-1.8-0.6c-0.6-0.6-0.6-1.2-0.6-1.8v-57.7c0-0.6,0-1.2,0.6-1.8
			C612.2,246.6,612.8,246.6,613.4,246.6L613.4,246.6z"/>
		<path fill="#FFFFFF" d="M662.5,275.4h23.3c0.6,0,1.2,0,1.8,0.6c0.6,0.6,0.6,1.2,0.6,1.8l0,0c0,0.6,0,1.2-0.6,1.8
			c-0.6,0.6-1.2,0.6-1.8,0.6h-23.3v15.3c0,2.5,0.6,4.3,2.5,5.5c1.8,1.8,3.7,2.5,5.5,2.5h15.3c0.6,0,1.2,0,1.8,0.6
			c0.6,0.6,0.6,1.2,0.6,1.8l0,0c0,0.6,0,1.2-0.6,1.8c-0.6,0.6-1.2,0.6-1.8,0.6h-15.3c-3.7,0-6.7-1.2-9.2-3.7s-3.7-5.5-3.7-9.2v-36.2
			c0-3.7,1.2-6.7,3.7-9.2s5.5-3.7,9.2-3.7h15.3c0.6,0,1.2,0,1.8,0.6c0.6,0.6,0.6,1.2,0.6,1.8l0,0c0,0.6,0,1.2-0.6,1.8
			s-1.2,0.6-1.8,0.6h-15.3c-2.5,0-4.3,0.6-5.5,2.5c-1.8,1.8-2.5,3.7-2.5,5.5V275.4z"/>
		<path fill="#FFFFFF" d="M733,252.1c-3.1,0-6.1,1.2-8,3.7c-2.5,2.5-3.7,4.9-3.7,8c0,3.7,1.8,6.7,5.5,9.2c1.2,0.6,4.9,1.8,11,3.7
			c4.3,1.2,8,3.1,9.8,4.9c3.1,2.5,4.3,6.1,4.3,11s-1.8,8.6-4.9,12.3c-3.1,3.1-7.4,4.9-12.3,4.9h-16.6c-0.6,0-1.2,0-1.8-0.6
			c-0.6-0.6-0.6-1.2-0.6-1.8l0,0c0-0.6,0-1.2,0.6-1.8c0.6-0.6,1.2-0.6,1.8-0.6h17.2c3.1,0,6.1-1.2,8-3.7c2.5-2.5,3.7-4.9,3.7-8
			c0-3.7-1.8-6.7-5.5-9.2c-1.2-0.6-4.9-2.5-11-4.3c-4.9-1.2-8-3.1-9.8-4.9c-3.1-2.5-4.3-6.1-4.3-10.4c0-4.9,1.8-8.6,4.9-12.3
			c3.1-3.1,7.4-4.9,12.3-4.9h11.7c0.6,0,1.2,0,1.8,0.6c0.6,0.6,0.6,1.2,0.6,1.8l0,0c0,0.6,0,1.2-0.6,1.8s-1.2,0.6-1.8,0.6H733z"/>
		<path fill="#FFFFFF" d="M764.9,290.7c0,3.7,1.2,6.7,3.7,9.2s5.5,3.7,9.2,3.7c3.7,0,6.7-1.2,9.2-3.7c2.5-2.5,3.7-5.5,3.7-9.2V249
			c0-0.6,0-1.2,0.6-1.8c0.6-0.6,1.2-0.6,1.8-0.6l0,0c0.6,0,1.2,0,1.8,0.6c0.6,0.6,0.6,1.2,0.6,1.8v41.7c0,3.7,1.2,6.7,3.7,9.2
			c2.5,2.5,5.5,3.7,9.2,3.7s6.7-1.2,9.2-3.7s3.7-5.5,3.7-9.2V249c0-0.6,0-1.2,0.6-1.8c0.6-0.6,1.2-0.6,1.8-0.6l0,0
			c0.6,0,1.2,0,1.8,0.6c0.6,0.6,0.6,1.2,0.6,1.8v41.7c0,4.9-1.8,9.2-5.5,12.9c-3.7,3.7-8,5.5-12.9,5.5c-6.1,0-11-3.1-15.3-8.6
			c-4.3,5.5-9.8,8.6-15.3,8.6c-4.9,0-9.2-1.8-12.9-5.5s-5.5-8-5.5-12.9V249c0-0.6,0-1.2,0.6-1.8c0.6-0.6,1.2-0.6,1.8-0.6l0,0
			c0.6,0,1.2,0,1.8,0.6c0.6,0.6,0.6,1.2,0.6,1.8v41.7H764.9z"/>
		<path fill="#FFFFFF" d="M876.6,306.7c0,0.6,0,1.2-0.6,1.8c-0.6,0.6-1.2,0.6-1.8,0.6l0,0c-0.6,0-1.2,0-1.8-0.6
			c-0.6-0.6-0.6-1.2-0.6-1.8v-22.1h-28.8v22.1c0,0.6,0,1.2-0.6,1.8c-0.6,0.6-1.2,0.6-1.8,0.6l0,0c-0.6,0-1.2,0-1.8-0.6
			c-0.6-0.6-0.6-1.2-0.6-1.8v-40.5c0-5.5,1.8-10.4,6.1-14.1c3.7-3.7,8.6-5.5,14.1-5.5c5.5,0,10.4,1.8,14.1,5.5s6.1,8.6,6.1,14.1
			v40.5H876.6z M871.7,279.1v-12.9c0-3.7-1.2-7.4-4.3-10.4c-3.1-3.1-6.1-4.3-10.4-4.3c-3.7,0-7.4,1.2-10.4,4.3
			c-3.1,3.1-4.3,6.1-4.3,10.4v12.9H871.7z"/>
		<path fill="#FFFFFF" d="M891.9,287.7v19c0,0.6,0,1.2-0.6,1.8c-0.6,0.6-1.2,0.6-1.8,0.6l0,0c-0.6,0-1.2,0-1.8-0.6
			c-0.6-0.6-0.6-1.2-0.6-1.8v-39.9c0-5.5,1.8-10.4,6.1-14.7c4.3-3.7,8.6-6.1,14.7-6.1c5.5,0,10.4,1.8,14.7,6.1
			c4.3,4.3,6.1,8.6,6.1,14.7c0,5.5-1.8,10.4-6.1,14.7c-3.7,4.3-8.6,6.1-14.7,6.1H891.9z M891.9,282.1h15.3c4.3,0,8-1.2,10.4-4.3
			c3.1-3.1,4.3-6.7,4.3-10.4c0-4.3-1.2-8-4.3-10.4c-3.1-3.1-6.7-4.3-10.4-4.3c-4.3,0-8,1.2-10.4,4.3c-3.1,3.1-4.3,6.7-4.3,10.4v14.7
			H891.9z"/>
	</g>
</g>
</svg>
