<?xml version="1.0" encoding="utf-8"?>
<!-- Generator: Adobe Illustrator 18.0.0, SVG Export Plug-In . SVG Version: 6.00 Build 0)  -->
<!DOCTYPE svg PUBLIC "-//W3C//DTD SVG 1.1//EN" "http://www.w3.org/Graphics/SVG/1.1/DTD/svg11.dtd">
<svg version="1.1" id="Layer_1" xmlns="http://www.w3.org/2000/svg" xmlns:xlink="http://www.w3.org/1999/xlink" x="0px" y="0px"
	 viewBox="0 0 32.2 32.2" enable-background="new 0 0 32.2 32.2" xml:space="preserve">
<g>
	<g>
		<path fill="#FFFFFF" d="M16.1,32.2C7.2,32.2,0,25,0,16.1C0,7.2,7.2,0,16.1,0s16.1,7.2,16.1,16.1C32.2,25,25,32.2,16.1,32.2z
			 M16.1,0.6c-8.6,0-15.5,7-15.5,15.5s7,15.5,15.5,15.5s15.5-7,15.5-15.5S24.7,0.6,16.1,0.6z"/>
	</g>
	<path fill="#FFFFFF" d="M26.5,22.8c-0.5-0.8-1-1.6-1.5-2.5c-1.3-2.2-2.6-4.4-3.9-6.6c-1.6-2.7-3.2-5.4-4.8-8.1
		c-0.3-0.5-0.9-0.5-1.2,0c-0.4,0.7-0.8,1.3-1.1,2c-1.5,2.6-3,5.2-4.5,7.7c-1.4,2.5-2.9,5-4.3,7.4c-0.3,0.5,0.1,1,0.6,1
		c3.3,0,6.7,0,10,0c3.4,0,6.7,0,10.1,0c0.3,0,0.5-0.1,0.6-0.3C26.7,23.3,26.7,23.1,26.5,22.8z M15.9,21.4c-0.5,0-1-0.5-1-1
		c0-0.5,0.5-1,1-1c0.6,0,1,0.5,1,1C16.9,21,16.5,21.4,15.9,21.4z M17.2,13.2c-0.1,0.5-0.1,1-0.2,1.5c-0.1,0.5-0.1,1-0.2,1.5
		c0,0.4-0.1,0.8-0.1,1.2c0,0.2,0,0.5-0.1,0.7c-0.1,0.4-0.3,0.7-0.7,0.6c-0.5,0-0.7-0.4-0.8-0.7c-0.1-0.8-0.2-1.7-0.3-2.5
		c-0.1-0.6-0.1-1.2-0.2-1.9c0-0.3-0.1-0.6-0.1-1c-0.1-0.5,0.3-1.2,0.8-1.5c0.5-0.2,1.2-0.1,1.6,0.3c0.2,0.3,0.4,0.6,0.4,0.9
		C17.3,12.7,17.2,13,17.2,13.2z"/>
</g>
</svg>
