<?xml version="1.0" encoding="utf-8"?>
<!-- Generator: Adobe Illustrator 18.0.0, SVG Export Plug-In . SVG Version: 6.00 Build 0)  -->
<!DOCTYPE svg PUBLIC "-//W3C//DTD SVG 1.1//EN" "http://www.w3.org/Graphics/SVG/1.1/DTD/svg11.dtd">
<svg version="1.1" id="Layer_1" xmlns="http://www.w3.org/2000/svg" xmlns:xlink="http://www.w3.org/1999/xlink" x="0px" y="0px"
	 viewBox="0 0 32.2 32.2" enable-background="new 0 0 32.2 32.2" xml:space="preserve">
<g>
	<g>
		<path fill="#FFFFFF" d="M16.2,32.2C7.3,32.2,0.1,25,0.1,16.1C0.1,7.2,7.3,0,16.2,0s16.1,7.2,16.1,16.1C32.3,25,25,32.2,16.2,32.2z
			 M16.2,0.6c-8.6,0-15.5,7-15.5,15.5s7,15.5,15.5,15.5s15.5-7,15.5-15.5S24.7,0.6,16.2,0.6z"/>
	</g>
	<g>
		<path fill="#FFFFFF" d="M16.4,28.3c-2.1-1.9-4.3-3.8-6.4-5.8c-1.3-1.2-2.6-2.3-3.7-3.7c-1.5-1.8-2.1-4-1.5-6.4
			c0.6-2.2,1.8-4,4.2-4.5c2.5-0.6,4.6,0.1,6.3,2c0.4,0.4,0.7,0.9,1,1.4c1-1.7,2.4-3,4.5-3.5C25,7,28.7,10.5,28,14.7
			c-0.4,2.5-1.6,4.4-3.5,6.1c-1.6,1.4-3.3,2.7-4.9,4.2C18.5,26.1,17.4,27.3,16.4,28.3z"/>
	</g>
</g>
</svg>
