<?xml version="1.0" encoding="utf-8"?>
<!-- Generator: Adobe Illustrator 24.3.0, SVG Export Plug-In . SVG Version: 6.00 Build 0)  -->
<svg version="1.1" id="Layer_1" xmlns="http://www.w3.org/2000/svg" xmlns:xlink="http://www.w3.org/1999/xlink" x="0px" y="0px"
	 viewBox="0 0 32.2 32.2" style="enable-background:new 0 0 32.2 32.2;" xml:space="preserve">
<style type="text/css">
	.st0{fill:#FFFFFF;}
</style>
<g>
	<g>
		<path class="st0" d="M16.1,32.2C7.2,32.2,0,25,0,16.1S7.2,0,16.1,0s16.1,7.2,16.1,16.1S25,32.2,16.1,32.2z M16.1,0.6
			c-8.6,0-15.5,7-15.5,15.5s7,15.5,15.5,15.5c8.6,0,15.5-7,15.5-15.5S24.7,0.6,16.1,0.6z"/>
	</g>
	<path class="st0" d="M6,18.2c0-0.2,0.1-0.5,0.1-0.7c0.6-2.3,2.9-3.6,5.2-3.1c0,0,0.1,0,0.2,0c-0.1-0.2-0.1-0.3-0.2-0.4
		c-0.1-0.2-0.2-0.5-0.3-0.7c-0.1-0.2-0.1-0.2-0.3-0.2c-0.2,0-0.3,0-0.5,0c-0.4,0-0.6-0.3-0.6-0.6c0-0.3,0.3-0.6,0.6-0.6
		c0.7,0,1.4,0,2,0c0.4,0,0.7,0.2,0.7,0.6c0,0.4-0.2,0.6-0.6,0.7c0,0-0.1,0-0.1,0c0.1,0.2,0.2,0.4,0.3,0.7c0,0,0.1,0.1,0.1,0.1
		c1.7,0,3.3,0,5,0c0.1,0,0.2-0.1,0.2-0.1c0.4-0.6,0.7-1.2,1.1-1.8c0-0.1,0-0.2,0-0.2c-0.3-0.4-0.7-0.6-1.1-0.7c-0.1,0-0.2,0-0.2,0
		c-0.3-0.1-0.6-0.3-0.5-0.7c0-0.3,0.3-0.6,0.6-0.6c1,0,1.7,0.4,2.3,1.2c0.3,0.4,0.4,0.8,0.5,1.2c0.2,0.8,0.5,1.6,0.8,2.3
		c0,0,0,0,0,0c0.5-0.1,0.9-0.2,1.3-0.2c2.2-0.1,4.2,1.5,4.5,3.7c0.3,2.3-1.2,4.4-3.5,4.9c-2.7,0.5-5.3-1.7-5.1-4.5
		c0.1-1.2,0.6-2.2,1.5-3c0.1-0.1,0.1-0.2,0.1-0.3c-0.2-0.4-0.4-0.9-0.5-1.4c0,0,0-0.1-0.1-0.2c-0.1,0.1-0.1,0.2-0.1,0.2
		c-1,1.7-2,3.4-3,5.1c-0.2,0.3-0.4,0.4-0.8,0.4c-0.3,0-0.6,0-1,0c0,0.2-0.1,0.3-0.1,0.5c-0.5,1.9-2.3,3.4-4.6,3.2
		c-2-0.2-3.6-1.8-3.9-3.7c0,0,0-0.1,0-0.1C6,18.7,6,18.4,6,18.2z M13.4,17.9c-0.2-1.2-1.4-2.6-3.4-2.4c-1.6,0.2-2.8,1.6-2.7,3.2
		c0.1,1.6,1.5,2.9,3.1,2.9c1.4,0,2.9-1.2,3-2.5c-0.1,0-0.2,0-0.2,0c-0.9,0-1.8,0-2.7,0c-0.4,0-0.6-0.3-0.6-0.6
		c0-0.3,0.3-0.6,0.6-0.6c0.5,0,0.9,0,1.4,0C12.3,17.9,12.8,17.9,13.4,17.9z M20.8,16.3c-1,0.9-1.4,2.7-0.4,4.1
		c1,1.3,2.9,1.6,4.2,0.7c1.4-1,1.7-2.8,0.8-4.2c-0.8-1.2-2.6-1.8-3.5-1.2c0.2,0.3,0.4,0.7,0.6,1c0.3,0.5,0.6,0.9,0.9,1.4
		c0.2,0.4,0.2,0.7-0.1,0.9c-0.3,0.2-0.7,0.1-0.9-0.2c-0.1-0.1-0.1-0.2-0.2-0.3C21.7,17.8,21.2,17.1,20.8,16.3z M17.1,15.1
		c-1.3,0-2.6,0-4,0c0.1,0.2,0.2,0.3,0.3,0.5c0.5,0.6,0.9,1.2,1.1,2c0,0.2,0.1,0.3,0.1,0.5c0.2,0,0.4,0,0.6,0c0.1,0,0.2,0,0.3-0.2
		c0.4-0.7,0.9-1.4,1.3-2.2C16.9,15.5,17,15.3,17.1,15.1z"/>
</g>
</svg>
